RobotoFlex-XTRA323.ufo
<glyph name="parenright" format="2">
  <advance width="565"/>
  <unicode hex="0029"/>
  <outline>
    <contour>
      <point x="36" y="-436" type="qcurve"/>
      <point x="36" y="-276" type="line"/>
      <point x="135" y="-198"/>
      <point x="246" y="160"/>
      <point x="246" y="508" type="qcurve" smooth="yes"/>
      <point x="246" y="532" type="line" smooth="yes"/>
      <point x="246" y="880"/>
      <point x="135" y="1238"/>
      <point x="36" y="1316" type="qcurve"/>
      <point x="36" y="1476" type="line"/>
      <point x="219" y="1370"/>
      <point x="441" y="920"/>
      <point x="441" y="525" type="qcurve" smooth="yes"/>
      <point x="441" y="515" type="line" smooth="yes"/>
      <point x="441" y="120"/>
      <point x="219" y="-330"/>
    </contour>
  </outline>
</glyph>
<glyph name="slash" format="2">
  <advance width="389"/>
  <unicode hex="002F"/>
  <outline>
    <contour>
      <point x="-100.0" y="-125.0" type="line"/>
      <point x="319.0" y="1456.0" type="line"/>
      <point x="489.0" y="1456.0" type="line"/>
      <point x="71.0" y="-125.0" type="line"/>
    </contour>
  </outline>
</glyph>
<glyph name="one" format="2">
  <advance width="920"/>
  <unicode hex="0031"/>
  <outline>
    <contour>
      <point x="420.0" y="0.0" type="line"/>
      <point x="420.0" y="1218.0" type="line"/>
      <point x="192.0" y="1120.0" type="line"/>
      <point x="192.0" y="1306.0" type="line"/>
      <point x="590.0" y="1476.0" type="line"/>
      <point x="612.0" y="1476.0" type="line"/>
      <point x="612.0" y="0.0" type="line"/>
    </contour>
  </outline>
</glyph>
<glyph name="two" format="2">
	<unicode hex="0032"/>
	<advance width="920"/>
	<outline>
		<contour>
			<point x="110" y="0" type="line"/>
			<point x="110" y="140" type="line"/>
			<point x="497" y="808" type="line" smooth="yes"/>
			<point x="555" y="908"/>
			<point x="610" y="1044"/>
			<point x="610" y="1130" type="qcurve" smooth="yes"/>
			<point x="610" y="1230"/>
			<point x="535" y="1328"/>
			<point x="466" y="1328" type="qcurve" smooth="yes"/>
			<point x="397" y="1328"/>
			<point x="301" y="1199"/>
			<point x="301" y="1030" type="qcurve" smooth="yes"/>
			<point x="301" y="1020" type="line"/>
			<point x="110" y="1020" type="line"/>
			<point x="110" y="1030" type="line" smooth="yes"/>
			<point x="110" y="1257"/>
			<point x="316" y="1486"/>
			<point x="466" y="1486" type="qcurve" smooth="yes"/>
			<point x="616" y="1486"/>
			<point x="800" y="1301"/>
			<point x="800" y="1140" type="qcurve" smooth="yes"/>
			<point x="800" y="1042"/>
			<point x="728" y="878"/>
			<point x="635" y="721" type="qcurve" smooth="yes"/>
			<point x="301" y="156" type="line"/>
			<point x="830" y="156" type="line"/>
			<point x="830" y="0" type="line"/>
		</contour>
	</outline>
</glyph>
<glyph name="three" format="2">
  <advance width="920"/>
  <unicode hex="0033"/>
  <outline>
    <contour>
      <point x="80" y="350" type="qcurve" smooth="yes"/>
      <point x="80" y="390" type="line"/>
      <point x="266" y="390" type="line"/>
      <point x="266" y="350" type="line" smooth="yes"/>
      <point x="266.0" y="242.0"/>
      <point x="357.0" y="128.0"/>
      <point x="439" y="128.0" type="qcurve" smooth="yes"/>
      <point x="516" y="128"/>
      <point x="608" y="260"/>
      <point x="608" y="400" type="qcurve" smooth="yes"/>
      <point x="608" y="540"/>
      <point x="511.0" y="682.0"/>
      <point x="410" y="682" type="qcurve" smooth="yes"/>
      <point x="324" y="682" type="line"/>
      <point x="324" y="836" type="line"/>
      <point x="403" y="836" type="line" smooth="yes"/>
      <point x="493.0" y="836.0"/>
      <point x="571" y="970"/>
      <point x="571" y="1090" type="qcurve" smooth="yes"/>
      <point x="571" y="1210"/>
      <point x="499" y="1328"/>
      <point x="429" y="1328" type="qcurve" smooth="yes"/>
      <point x="366" y="1328"/>
      <point x="296.0" y="1240.0"/>
      <point x="296" y="1130" type="qcurve" smooth="yes"/>
      <point x="296" y="1090" type="line"/>
      <point x="110" y="1090" type="line"/>
      <point x="110" y="1130" type="line" smooth="yes"/>
      <point x="110" y="1290.0"/>
      <point x="296" y="1486"/>
      <point x="439" y="1486" type="qcurve" smooth="yes"/>
      <point x="581" y="1486"/>
      <point x="763" y="1270"/>
      <point x="763" y="1100" type="qcurve" smooth="yes"/>
      <point x="763" y="1000"/>
      <point x="685" y="816"/>
      <point x="593" y="766" type="qcurve"/>
      <point x="593" y="762" type="line"/>
      <point x="688" y="730"/>
      <point x="802" y="540"/>
      <point x="802" y="401" type="qcurve" smooth="yes"/>
      <point x="802" y="200"/>
      <point x="596" y="-30"/>
      <point x="442" y="-30.0" type="qcurve" smooth="yes"/>
      <point x="274.0" y="-30"/>
      <point x="80" y="176.0"/>
    </contour>
  </outline>
</glyph>
<glyph name="less" format="2">
	<unicode hex="003C"/>
	<advance width="966"/>
	<outline>
		<contour>
			<point x="786" y="223" type="line"/>
			<point x="172" y="602" type="line"/>
			<point x="172" y="746" type="line"/>
			<point x="786" y="1125" type="line"/>
			<point x="786" y="937" type="line"/>
			<point x="351" y="674" type="line"/>
			<point x="786" y="411" type="line"/>
		</contour>
	</outline>
</glyph>
<glyph name="equal" format="2">
	<unicode hex="003D"/>
	<advance width="954"/>
	<outline>
		<contour>
			<point x="153" y="390" type="line"/>
			<point x="153" y="554" type="line"/>
			<point x="801" y="554" type="line"/>
			<point x="801" y="390" type="line"/>
		</contour>
		<contour>
			<point x="153" y="794" type="line"/>
			<point x="153" y="958" type="line"/>
			<point x="801" y="958" type="line"/>
			<point x="801" y="794" type="line"/>
		</contour>
	</outline>
</glyph>
<glyph name="greater" format="2">
  <advance width="820"/>
  <unicode hex="003E"/>
  <outline>
    <contour>
      <point x="106" y="223" type="line"/>
      <point x="106" y="411" type="line"/>
      <point x="541" y="674" type="line"/>
      <point x="106" y="937" type="line"/>
      <point x="106" y="1125" type="line"/>
      <point x="720" y="746" type="line"/>
      <point x="720" y="602" type="line"/>
    </contour>
  </outline>
</glyph>
<glyph name="B" format="2">
  <advance width="1020"/>
  <unicode hex="0042"/>
  <outline>
    <contour>
      <point x="170" y="0" type="line"/>
      <point x="170" y="1456" type="line"/>
      <point x="510" y="1456" type="line" smooth="yes"/>
      <point x="683.3898305085" y="1456"/>
      <point x="882" y="1270"/>
      <point x="882" y="1070" type="qcurve" smooth="yes"/>
      <point x="882" y="950"/>
      <point x="791.4706081879" y="793.4117718002"/>
      <point x="720" y="768" type="qcurve"/>
      <point x="720" y="764" type="line"/>
      <point x="809.9103824194" y="737.8442523871"/>
      <point x="920" y="560"/>
      <point x="920" y="420" type="qcurve" smooth="yes"/>
      <point x="920" y="220"/>
      <point x="711.7916666667" y="0"/>
      <point x="540" y="0" type="qcurve" smooth="yes"/>
    </contour>
    <contour>
      <point x="358" y="158" type="line"/>
      <point x="540" y="158" type="line" smooth="yes"/>
      <point x="638.275862069" y="158"/>
      <point x="730" y="300"/>
      <point x="730" y="420" type="qcurve" smooth="yes"/>
      <point x="730" y="540"/>
      <point x="638.275862069" y="680"/>
      <point x="540" y="680" type="qcurve" smooth="yes"/>
      <point x="358" y="680" type="line"/>
    </contour>
    <contour>
      <point x="358" y="836" type="line"/>
      <point x="510" y="836" type="line" smooth="yes"/>
      <point x="606.8085106383" y="836"/>
      <point x="692" y="960"/>
      <point x="692" y="1070" type="qcurve" smooth="yes"/>
      <point x="692" y="1180"/>
      <point x="606.8085106383" y="1298"/>
      <point x="510" y="1298" type="qcurve" smooth="yes"/>
      <point x="358" y="1298" type="line"/>
    </contour>
  </outline>
</glyph>
<glyph name="D" format="2">
  <advance width="1110"/>
  <unicode hex="0044"/>
  <outline>
    <contour>
      <point x="170.0" y="0.0" type="line"/>
      <point x="170.0" y="1456.0" type="line"/>
      <point x="482.0" y="1456.0" type="line" smooth="yes"/>
      <point x="701.5598377281947" y="1456.0"/>
      <point x="995.0" y="1086.0"/>
      <point x="995.0" y="774.0" type="qcurve" smooth="yes"/>
      <point x="995.0" y="682.0" type="line" smooth="yes"/>
      <point x="995.0" y="370.0"/>
      <point x="701.5598377281947" y="0.0"/>
      <point x="482.0" y="0.0" type="qcurve" smooth="yes"/>
    </contour>
    <contour>
      <point x="362.0" y="158.0" type="line"/>
      <point x="482.0" y="158.0" type="line" smooth="yes"/>
      <point x="628.1638795986622" y="158.0"/>
      <point x="801.0" y="436.0"/>
      <point x="801.0" y="682.0" type="qcurve" smooth="yes"/>
      <point x="801.0" y="774.0" type="line" smooth="yes"/>
      <point x="801.0" y="1020.0"/>
      <point x="628.1638795986622" y="1298.0"/>
      <point x="482.0" y="1298.0" type="qcurve" smooth="yes"/>
      <point x="362.0" y="1298.0" type="line"/>
    </contour>
  </outline>
</glyph>
<glyph name="F" format="2">
  <advance width="900"/>
  <unicode hex="0046"/>
  <anchor x="450.0" y="0" name="bottom"/>
  <anchor x="509.0" y="1456" name="top"/>
  <outline>
    <contour>
      <point x="170" y="0" type="line"/>
      <point x="170" y="1456" type="line"/>
      <point x="842" y="1456" type="line"/>
      <point x="842" y="1298" type="line"/>
      <point x="362" y="1298" type="line"/>
      <point x="362" y="801" type="line"/>
      <point x="773" y="801" type="line"/>
      <point x="773" y="643" type="line"/>
      <point x="362" y="643" type="line"/>
      <point x="362" y="0" type="line"/>
    </contour>
  </outline>
</glyph>
<glyph name="H" format="2">
  <advance width="1178"/>
  <unicode hex="0048"/>
  <anchor x="589.0" y="0" name="bottom"/>
  <anchor x="589.0" y="1100" name="center"/>
  <anchor x="589.0" y="1456" name="top"/>
  <outline>
    <contour>
      <point x="170" y="0" type="line"/>
      <point x="170" y="1456" type="line"/>
      <point x="362" y="1456" type="line"/>
      <point x="362" y="830" type="line"/>
      <point x="816" y="830" type="line"/>
      <point x="816" y="1456" type="line"/>
      <point x="1008" y="1456" type="line"/>
      <point x="1008" y="0" type="line"/>
      <point x="816" y="0" type="line"/>
      <point x="816" y="672" type="line"/>
      <point x="362" y="672" type="line"/>
      <point x="362" y="0" type="line"/>
    </contour>
  </outline>
</glyph>
<glyph name="J" format="2">
  <advance width="860"/>
  <unicode hex="004A"/>
  <outline>
    <contour>
      <point x="25.0" y="400.0" type="qcurve" smooth="yes"/>
      <point x="25.0" y="410.0" type="line"/>
      <point x="217.0" y="410.0" type="line"/>
      <point x="217.0" y="400.0" type="line" smooth="yes"/>
      <point x="217.0" y="270.0"/>
      <point x="286.0" y="134.0"/>
      <point x="365.0" y="134.0" type="qcurve" smooth="yes"/>
      <point x="444.0" y="134.0"/>
      <point x="513.0" y="285.99684383622855"/>
      <point x="513.0" y="425.0" type="qcurve" smooth="yes"/>
      <point x="513.0" y="1456.0" type="line"/>
      <point x="705.0" y="1456.0" type="line"/>
      <point x="705.0" y="425.0" type="line" smooth="yes"/>
      <point x="705.0" y="215.0"/>
      <point x="528.0" y="-30.0"/>
      <point x="365.0" y="-30.0" type="qcurve" smooth="yes"/>
      <point x="202.0" y="-30.0"/>
      <point x="25.0" y="200.0"/>
    </contour>
  </outline>
</glyph>
<glyph name="M" format="2">
  <advance width="1389"/>
  <unicode hex="004D"/>
  <outline>
    <contour>
      <point x="170" y="0" type="line"/>
      <point x="170" y="1456" type="line"/>
      <point x="430" y="1456" type="line"/>
      <point x="665" y="440" type="line" smooth="yes"/>
      <point x="674" y="400"/>
      <point x="687" y="330"/>
      <point x="692" y="280" type="qcurve"/>
      <point x="697" y="280" type="line"/>
      <point x="702" y="330"/>
      <point x="715" y="400"/>
      <point x="724" y="440" type="qcurve" smooth="yes"/>
      <point x="959" y="1456" type="line"/>
      <point x="1219" y="1456" type="line"/>
      <point x="1219" y="0" type="line"/>
      <point x="1033" y="0" type="line"/>
      <point x="1033" y="940" type="line" smooth="yes"/>
      <point x="1033" y="980"/>
      <point x="1037" y="1080"/>
      <point x="1040" y="1120" type="qcurve"/>
      <point x="1032" y="1120" type="line"/>
      <point x="1028" y="1080"/>
      <point x="1013" y="980"/>
      <point x="1004" y="940" type="qcurve" smooth="yes"/>
      <point x="781" y="0" type="line"/>
      <point x="604" y="0" type="line"/>
      <point x="386" y="940" type="line" smooth="yes"/>
      <point x="377" y="980"/>
      <point x="358" y="1080"/>
      <point x="354" y="1120" type="qcurve"/>
      <point x="347" y="1120" type="line"/>
      <point x="349" y="1080"/>
      <point x="352" y="980"/>
      <point x="352" y="940" type="qcurve" smooth="yes"/>
      <point x="352" y="0" type="line"/>
    </contour>
  </outline>
</glyph>
<glyph name="Y" format="2">
  <advance width="884"/>
  <unicode hex="0059"/>
  <outline>
    <contour>
      <point x="346" y="0" type="line"/>
      <point x="346" y="544" type="line"/>
      <point x="15" y="1456" type="line"/>
      <point x="217" y="1456" type="line"/>
      <point x="408" y="840" type="line" smooth="yes"/>
      <point x="417" y="810"/>
      <point x="436" y="750"/>
      <point x="444" y="720" type="qcurve"/>
      <point x="448" y="720" type="line"/>
      <point x="455" y="750"/>
      <point x="474" y="810"/>
      <point x="483" y="840" type="qcurve" smooth="yes"/>
      <point x="676" y="1456" type="line"/>
      <point x="869" y="1456" type="line"/>
      <point x="538" y="544" type="line"/>
      <point x="538" y="0" type="line"/>
    </contour>
  </outline>
</glyph>
<glyph name="backslash" format="2">
	<unicode hex="005C"/>
	<advance width="388"/>
	<outline>
		<contour>
			<point x="-100" y="1456" type="line"/>
			<point x="70" y="1456" type="line"/>
			<point x="488" y="-125" type="line"/>
			<point x="319" y="-125" type="line"/>
		</contour>
	</outline>
</glyph>
<glyph name="bracketright" format="2">
  <advance width="581"/>
  <unicode hex="005D"/>
  <outline>
    <contour>
      <point x="437" y="-310" type="line"/>
      <point x="80" y="-310" type="line"/>
      <point x="80" y="-150" type="line"/>
      <point x="252" y="-150" type="line"/>
      <point x="252" y="1296" type="line"/>
      <point x="80" y="1296" type="line"/>
      <point x="80" y="1456" type="line"/>
      <point x="437" y="1456" type="line"/>
    </contour>
  </outline>
</glyph>
<glyph name="b" format="2">
  <advance width="926"/>
  <unicode hex="0062"/>
  <outline>
    <contour>
      <point x="148.0" y="0.0" type="line"/>
      <point x="148.0" y="1536.0" type="line"/>
      <point x="334.0" y="1536.0" type="line"/>
      <point x="334.0" y="958.0" type="line"/>
      <point x="363.1731978492289" y="1012.024440461535"/>
      <point x="463.8571428571429" y="1072.0"/>
      <point x="536.0" y="1072.0" type="qcurve" smooth="yes"/>
      <point x="674.8923076923077" y="1072.0"/>
      <point x="841.0" y="772.0"/>
      <point x="841.0" y="542.0" type="qcurve" smooth="yes"/>
      <point x="841.0" y="510.0" type="line" smooth="yes"/>
      <point x="841.0" y="280.0"/>
      <point x="674.8923076923077" y="-20.0"/>
      <point x="536.0" y="-20.0" type="qcurve" smooth="yes"/>
      <point x="463.97297297297297" y="-20.0"/>
      <point x="355.6445846935051" y="52.35331220135814"/>
      <point x="331.0" y="107.0" type="qcurve"/>
      <point x="326.0" y="107.0" type="line"/>
      <point x="320.0" y="0.0" type="line"/>
    </contour>
    <contour>
      <point x="334.0" y="272.0" type="line"/>
      <point x="352.8084576900379" y="216.51504981438814"/>
      <point x="429.76" y="132.0"/>
      <point x="486.0" y="132.0" type="qcurve" smooth="yes"/>
      <point x="571.1860465116279" y="132.0"/>
      <point x="651.0" y="350.0"/>
      <point x="651.0" y="510.0" type="qcurve" smooth="yes"/>
      <point x="651.0" y="542.0" type="line" smooth="yes"/>
      <point x="651.0" y="702.0"/>
      <point x="571.1860465116279" y="920.0"/>
      <point x="486.0" y="920.0" type="qcurve" smooth="yes"/>
      <point x="429.76" y="920.0"/>
      <point x="352.8084576900379" y="835.4849501856119"/>
      <point x="334.0" y="780.0" type="qcurve"/>
    </contour>
  </outline>
</glyph>
<glyph name="e" format="2">
  <advance width="848"/>
  <unicode hex="0065"/>
  <outline>
    <contour>
      <point x="85" y="510" type="qcurve" smooth="yes"/>
      <point x="85" y="542" type="line" smooth="yes"/>
      <point x="85" y="780"/>
      <point x="278" y="1082"/>
      <point x="437" y="1082" type="qcurve" smooth="yes"/>
      <point x="596" y="1082"/>
      <point x="768" y="800"/>
      <point x="768" y="560" type="qcurve" smooth="yes"/>
      <point x="768" y="484" type="line"/>
      <point x="180" y="484" type="line"/>
      <point x="180" y="632" type="line"/>
      <point x="583" y="632" type="line"/>
      <point x="583" y="632" type="line"/>
      <point x="583" y="760"/>
      <point x="516.9157894737" y="930"/>
      <point x="437" y="930" type="qcurve" smooth="yes"/>
      <point x="355.4786729858" y="930"/>
      <point x="270" y="705"/>
      <point x="270" y="542" type="qcurve" smooth="yes"/>
      <point x="270" y="510" type="line" smooth="yes"/>
      <point x="270" y="347"/>
      <point x="362.4721030043" y="122"/>
      <point x="459" y="122" type="qcurve" smooth="yes"/>
      <point x="519.8598130841" y="122"/>
      <point x="604" y="212"/>
      <point x="635" y="270" type="qcurve"/>
      <point x="762" y="175" type="line"/>
      <point x="725" y="100"/>
      <point x="570" y="-30"/>
      <point x="459" y="-30" type="qcurve" smooth="yes"/>
      <point x="278" y="-30"/>
      <point x="85" y="272"/>
    </contour>
  </outline>
</glyph>
<glyph name="j" format="2">
	<unicode hex="006A"/>
	<advance width="500"/>
	<outline>
		<contour>
			<point x="-5" y="-410" type="qcurve"/>
			<point x="-5" y="-260" type="line"/>
			<point x="10" y="-266"/>
			<point x="65" y="-280"/>
			<point x="87" y="-280" type="qcurve" smooth="yes"/>
			<point x="120" y="-280"/>
			<point x="157" y="-210"/>
			<point x="157" y="-130" type="qcurve" smooth="yes"/>
			<point x="157" y="1052" type="line"/>
			<point x="343" y="1052" type="line"/>
			<point x="343" y="-90" type="line" smooth="yes"/>
			<point x="343" y="-270"/>
			<point x="228" y="-436"/>
			<point x="116" y="-436" type="qcurve" smooth="yes"/>
			<point x="87" y="-436"/>
			<point x="13" y="-419"/>
		</contour>
		<contour>
			<point x="140" y="1370" type="qcurve" smooth="yes"/>
			<point x="140" y="1415"/>
			<point x="197" y="1476"/>
			<point x="250" y="1476" type="qcurve" smooth="yes"/>
			<point x="303" y="1476"/>
			<point x="360" y="1415"/>
			<point x="360" y="1370" type="qcurve" smooth="yes"/>
			<point x="360" y="1325"/>
			<point x="303" y="1264"/>
			<point x="250" y="1264" type="qcurve" smooth="yes"/>
			<point x="197" y="1264"/>
			<point x="140" y="1325"/>
		</contour>
	</outline>
</glyph>
<glyph name="k" format="2">
  <advance width="795"/>
  <unicode hex="006B"/>
  <outline>
    <contour>
      <point x="148" y="0" type="line"/>
      <point x="148" y="1536" type="line"/>
      <point x="334" y="1536" type="line"/>
      <point x="334" y="640" type="line"/>
      <point x="598" y="1052" type="line"/>
      <point x="780" y="1052" type="line"/>
      <point x="334" y="378" type="line"/>
      <point x="334" y="0" type="line"/>
    </contour>
    <contour>
      <point x="602" y="0" type="line"/>
      <point x="347" y="535" type="line"/>
      <point x="468" y="707" type="line"/>
      <point x="811" y="0" type="line"/>
    </contour>
  </outline>
</glyph>
<glyph name="v" format="2">
  <advance width="696"/>
  <unicode hex="0076"/>
  <outline>
    <contour>
      <point x="0" y="1052" type="line"/>
      <point x="178" y="1052" type="line"/>
      <point x="324" y="380" type="line" smooth="yes"/>
      <point x="333" y="340"/>
      <point x="344" y="260"/>
      <point x="348" y="220" type="qcurve"/>
      <point x="352" y="220" type="line"/>
      <point x="356" y="260"/>
      <point x="367" y="340"/>
      <point x="376" y="380" type="qcurve" smooth="yes"/>
      <point x="522" y="1052" type="line"/>
      <point x="696" y="1052" type="line"/>
      <point x="424" y="0" type="line"/>
      <point x="272" y="0" type="line"/>
    </contour>
  </outline>
</glyph>
<glyph name="x" format="2">
  <advance width="734"/>
  <unicode hex="0078"/>
  <anchor x="367.0" y="0" name="bottom"/>
  <anchor x="367.0" y="1052" name="top"/>
  <outline>
    <contour>
      <point x="0" y="0" type="line"/>
      <point x="276" y="582" type="line"/>
      <point x="304" y="582" type="line"/>
      <point x="504" y="1052" type="line"/>
      <point x="699" y="1052" type="line"/>
      <point x="428" y="484" type="line"/>
      <point x="410" y="484" type="line"/>
      <point x="205" y="0" type="line"/>
    </contour>
    <contour>
      <point x="35" y="1052" type="line"/>
      <point x="242" y="1052" type="line"/>
      <point x="442" y="582" type="line"/>
      <point x="458" y="582" type="line"/>
      <point x="734" y="0" type="line"/>
      <point x="527" y="0" type="line"/>
      <point x="322" y="484" type="line"/>
      <point x="306" y="484" type="line"/>
    </contour>
  </outline>
</glyph>
<glyph name="z" format="2">
  <advance width="769"/>
  <unicode hex="007A"/>
  <outline>
    <contour>
      <point x="70.0" y="0.0" type="line"/>
      <point x="70.0" y="136.0" type="line"/>
      <point x="486.0" y="900.0" type="line"/>
      <point x="76.0" y="900.0" type="line"/>
      <point x="76.0" y="1052.0" type="line"/>
      <point x="683.0" y="1052.0" type="line"/>
      <point x="683.0" y="919.0" type="line"/>
      <point x="265.0" y="152.0" type="line"/>
      <point x="705.0" y="152.0" type="line"/>
      <point x="705.0" y="0.0" type="line"/>
    </contour>
  </outline>
</glyph>
<glyph name="cent" format="2">
  <advance width="852"/>
  <unicode hex="00A2"/>
  <outline>
    <contour>
      <point x="454" y="282" type="qcurve" smooth="yes"/>
      <point x="522" y="282"/>
      <point x="624" y="401"/>
      <point x="629" y="492" type="qcurve"/>
      <point x="806" y="492.0" type="line"/>
      <point x="800" y="348.0"/>
      <point x="595" y="130.0"/>
      <point x="456" y="130.0" type="qcurve" smooth="yes"/>
      <point x="259" y="130.0"/>
      <point x="65.0" y="454.0"/>
      <point x="65.0" y="670.0" type="qcurve" smooth="yes"/>
      <point x="65.0" y="712.0" type="line" smooth="yes"/>
      <point x="65.0" y="928.0"/>
      <point x="259" y="1252.0"/>
      <point x="456" y="1252.0" type="qcurve" smooth="yes"/>
      <point x="610" y="1252.0"/>
      <point x="801" y="1026.0"/>
      <point x="806" y="860.0" type="qcurve"/>
      <point x="629" y="860" type="line"/>
      <point x="624" y="959"/>
      <point x="529" y="1100"/>
      <point x="454" y="1100" type="qcurve" smooth="yes"/>
      <point x="337" y="1100"/>
      <point x="251" y="852"/>
      <point x="251" y="712" type="qcurve" smooth="yes"/>
      <point x="251" y="670" type="line" smooth="yes"/>
      <point x="251" y="528"/>
      <point x="336" y="282"/>
    </contour>
    <contour>
      <point x="369" y="0" type="line"/>
      <point x="369" y="197" type="line"/>
      <point x="388" y="211" type="line"/>
      <point x="388" y="708" type="line"/>
      <point x="500" y="708" type="line"/>
      <point x="500" y="210" type="line"/>
      <point x="519" y="200" type="line"/>
      <point x="519" y="0" type="line"/>
    </contour>
    <contour>
      <point x="388" y="708" type="line"/>
      <point x="388" y="1182" type="line"/>
      <point x="369" y="1192" type="line"/>
      <point x="369" y="1402" type="line"/>
      <point x="519" y="1402" type="line"/>
      <point x="519" y="1192" type="line"/>
      <point x="500" y="1179" type="line"/>
      <point x="500" y="708" type="line"/>
    </contour>
  </outline>
</glyph>
<glyph name="yen" format="2">
  <advance width="856"/>
  <unicode hex="00A5"/>
  <outline>
    <contour>
      <point x="59" y="311" type="line"/>
      <point x="59" y="470" type="line"/>
      <point x="805" y="470" type="line"/>
      <point x="805" y="311" type="line"/>
    </contour>
    <contour>
      <point x="59" y="621" type="line"/>
      <point x="59" y="775" type="line"/>
      <point x="325" y="775" type="line"/>
      <point x="378" y="739" type="line"/>
      <point x="487" y="739" type="line"/>
      <point x="535" y="775" type="line"/>
      <point x="805" y="775" type="line"/>
      <point x="805" y="621" type="line"/>
    </contour>
    <contour>
      <point x="336" y="0" type="line"/>
      <point x="336" y="548" type="line"/>
      <point x="-19" y="1456" type="line"/>
      <point x="170" y="1456" type="line"/>
      <point x="366" y="939" type="line" smooth="yes"/>
      <point x="378" y="907"/>
      <point x="413" y="786"/>
      <point x="420" y="749" type="qcurve"/>
      <point x="440" y="749" type="line"/>
      <point x="445" y="797"/>
      <point x="482" y="907"/>
      <point x="494" y="939" type="qcurve" smooth="yes"/>
      <point x="694" y="1456" type="line"/>
      <point x="875" y="1456" type="line"/>
      <point x="520" y="548" type="line"/>
      <point x="520" y="0" type="line"/>
    </contour>
  </outline>
</glyph>
<glyph name="micro" format="2">
  <advance width="1068"/>
  <unicode hex="00B5"/>
  <outline>
    <contour>
      <point x="242" y="1052" type="line"/>
      <point x="428" y="1052" type="line"/>
      <point x="296" y="371" type="line" smooth="yes"/>
      <point x="272" y="245"/>
      <point x="302" y="136"/>
      <point x="360" y="136" type="qcurve" smooth="yes"/>
      <point x="426" y="136"/>
      <point x="581" y="232"/>
      <point x="634" y="308" type="qcurve"/>
      <point x="778" y="1052" type="line"/>
      <point x="964" y="1052" type="line"/>
      <point x="760" y="0" type="line"/>
      <point x="592" y="0" type="line"/>
      <point x="610" y="135" type="line"/>
      <point x="604" y="135" type="line"/>
      <point x="536" y="46"/>
      <point x="391" y="-20"/>
      <point x="321" y="-20" type="qcurve" smooth="yes"/>
      <point x="302" y="-20"/>
      <point x="241" y="-9"/>
      <point x="222" y="0" type="qcurve"/>
      <point x="144" y="-416" type="line"/>
      <point x="-42" y="-416" type="line"/>
    </contour>
  </outline>
</glyph>
<glyph name="germandbls" format="2">
  <advance width="1070"/>
  <unicode hex="00DF"/>
  <outline>
    <contour>
      <point x="332" y="1092.0" type="qcurve" smooth="yes" name="hr00"/>
      <point x="332" y="0" type="line"/>
      <point x="148" y="0" type="line"/>
      <point x="148" y="1092" type="line" smooth="yes"/>
      <point x="148" y="1295"/>
      <point x="331" y="1534"/>
      <point x="507" y="1534" type="qcurve" smooth="yes"/>
      <point x="651" y="1534"/>
      <point x="826" y="1361.0"/>
      <point x="826" y="1215.0" type="qcurve" smooth="yes"/>
      <point x="826" y="1127.0"/>
      <point x="789" y="1016"/>
      <point x="762" y="973.0" type="qcurve" smooth="yes"/>
      <point x="739" y="935"/>
      <point x="696" y="859.0"/>
      <point x="696" y="830.0" type="qcurve" smooth="yes"/>
      <point x="696" y="782.0"/>
      <point x="786" y="681"/>
      <point x="858" y="619" type="qcurve" smooth="yes"/>
      <point x="926" y="560"/>
      <point x="1021" y="411"/>
      <point x="1021" y="282" type="qcurve" smooth="yes"/>
      <point x="1021" y="157"/>
      <point x="829" y="-20"/>
      <point x="697" y="-20" type="qcurve" smooth="yes"/>
      <point x="566" y="-20"/>
      <point x="392.0" y="119.0"/>
      <point x="392" y="258" type="qcurve" smooth="yes"/>
      <point x="392" y="304" type="line"/>
      <point x="544" y="304" type="line"/>
      <point x="544" y="275" type="line" smooth="yes"/>
      <point x="544.0" y="191.0"/>
      <point x="635" y="131.0"/>
      <point x="703" y="131.0" type="qcurve" smooth="yes"/>
      <point x="767" y="131"/>
      <point x="848" y="218"/>
      <point x="848" y="302" type="qcurve" smooth="yes"/>
      <point x="848" y="371"/>
      <point x="767" y="469"/>
      <point x="720" y="512" type="qcurve" smooth="yes"/>
      <point x="657" y="569"/>
      <point x="528" y="706"/>
      <point x="528" y="797" type="qcurve" smooth="yes"/>
      <point x="528" y="871"/>
      <point x="587" y="982.0"/>
      <point x="610" y="1026.0" type="qcurve" smooth="yes"/>
      <point x="631" y="1066.0"/>
      <point x="656" y="1149.0"/>
      <point x="656" y="1204.0" type="qcurve" smooth="yes"/>
      <point x="656" y="1293.0"/>
      <point x="573" y="1383.0"/>
      <point x="508" y="1383.0" type="qcurve" smooth="yes"/>
      <point x="439" y="1383.0"/>
      <point x="332.0" y="1261.0"/>
    </contour>
  </outline>
</glyph>
<glyph name="kgreenlandic" format="2">
  <advance width="882"/>
  <unicode hex="0138"/>
  <outline>
    <contour>
      <point x="340" y="1052" type="line"/>
      <point x="340" y="0" type="line"/>
      <point x="155" y="0" type="line"/>
      <point x="155" y="1052" type="line"/>
    </contour>
    <contour>
      <point x="837" y="1052" type="line"/>
      <point x="447" y="462" type="line"/>
      <point x="230" y="462" type="line"/>
      <point x="230" y="624" type="line"/>
      <point x="362" y="624" type="line"/>
      <point x="633" y="1052" type="line"/>
    </contour>
    <contour>
      <point x="664" y="0" type="line"/>
      <point x="353" y="490" type="line"/>
      <point x="472" y="624" type="line"/>
      <point x="898" y="0" type="line"/>
    </contour>
  </outline>
</glyph>
<glyph name="OE" format="2">
  <advance width="1569"/>
  <unicode hex="0152"/>
  <outline>
    <contour>
      <point x="633" y="1477" type="qcurve" smooth="yes"/>
      <point x="666" y="1477"/>
      <point x="817" y="1464"/>
      <point x="884" y="1456" type="qcurve"/>
      <point x="1491" y="1456" type="line"/>
      <point x="1491" y="1298" type="line"/>
      <point x="999" y="1298" type="line"/>
      <point x="999" y="830" type="line"/>
      <point x="1399" y="830" type="line"/>
      <point x="1399" y="673" type="line"/>
      <point x="999" y="673" type="line"/>
      <point x="999" y="157" type="line"/>
      <point x="1501" y="157" type="line"/>
      <point x="1501" y="0" type="line"/>
      <point x="884" y="0" type="line"/>
      <point x="817" y="-7"/>
      <point x="668" y="-21"/>
      <point x="592" y="-21" type="qcurve" smooth="yes"/>
      <point x="398" y="-21"/>
      <point x="115" y="340"/>
      <point x="115" y="682" type="qcurve" smooth="yes"/>
      <point x="115" y="772" type="line" smooth="yes"/>
      <point x="115" y="1105"/>
      <point x="395" y="1477"/>
    </contour>
    <contour>
      <point x="310" y="682" type="line" smooth="yes"/>
      <point x="310" y="418"/>
      <point x="483" y="128"/>
      <point x="635" y="128" type="qcurve" smooth="yes"/>
      <point x="688" y="128"/>
      <point x="768" y="137"/>
      <point x="806" y="143" type="qcurve"/>
      <point x="806" y="1310" type="line"/>
      <point x="754" y="1317"/>
      <point x="659" y="1325"/>
      <point x="637" y="1325" type="qcurve" smooth="yes"/>
      <point x="480" y="1325"/>
      <point x="310" y="1030"/>
      <point x="310" y="774" type="qcurve" smooth="yes"/>
    </contour>
  </outline>
</glyph>
<glyph name="schwa" format="2">
  <advance width="820"/>
  <unicode hex="0259"/>
  <outline>
    <contour>
      <point x="735" y="542" type="qcurve" smooth="yes"/>
      <point x="735" y="510" type="line" smooth="yes"/>
      <point x="735" y="272"/>
      <point x="542" y="-30"/>
      <point x="383" y="-30" type="qcurve" smooth="yes"/>
      <point x="224" y="-30"/>
      <point x="52" y="252"/>
      <point x="52" y="492" type="qcurve" smooth="yes"/>
      <point x="52" y="568" type="line"/>
      <point x="640" y="568" type="line"/>
      <point x="640" y="420" type="line"/>
      <point x="237" y="420" type="line"/>
      <point x="237" y="420" type="line"/>
      <point x="237" y="292"/>
      <point x="303" y="122"/>
      <point x="383" y="122" type="qcurve" smooth="yes"/>
      <point x="465" y="122"/>
      <point x="550" y="347"/>
      <point x="550" y="510" type="qcurve" smooth="yes"/>
      <point x="550" y="542" type="line" smooth="yes"/>
      <point x="550" y="705"/>
      <point x="458" y="930"/>
      <point x="361" y="930" type="qcurve" smooth="yes"/>
      <point x="300" y="930"/>
      <point x="216" y="840"/>
      <point x="185" y="782" type="qcurve"/>
      <point x="58" y="877" type="line"/>
      <point x="95" y="952"/>
      <point x="250" y="1082"/>
      <point x="361" y="1082" type="qcurve" smooth="yes"/>
      <point x="542" y="1082"/>
      <point x="735" y="780"/>
    </contour>
  </outline>
</glyph>
<glyph name="breve" format="2">
	<unicode hex="02D8"/>
	<advance width="1022"/>
	<outline>
		<contour>
			<point x="754" y="1518" type="qcurve"/>
			<point x="849" y="1464" type="line"/>
			<point x="814" y="1365"/>
			<point x="639" y="1198"/>
			<point x="513" y="1198" type="qcurve" smooth="yes"/>
			<point x="400" y="1198"/>
			<point x="219" y="1351"/>
			<point x="177" y="1465" type="qcurve"/>
			<point x="281" y="1518" type="line"/>
			<point x="316" y="1461"/>
			<point x="435" y="1362"/>
			<point x="514" y="1362" type="qcurve" smooth="yes"/>
			<point x="598" y="1362"/>
			<point x="718" y="1457"/>
		</contour>
	</outline>
</glyph>
<glyph name="Delta" format="2">
  <advance width="1014"/>
  <unicode hex="0394"/>
  <outline>
    <contour>
      <point x="29" y="0" type="line"/>
      <point x="29" y="107" type="line"/>
      <point x="421" y="1466" type="line"/>
      <point x="593" y="1466" type="line"/>
      <point x="986" y="107" type="line"/>
      <point x="986" y="0" type="line"/>
    </contour>
    <contour>
      <point x="220" y="158" type="line"/>
      <point x="787" y="158" type="line"/>
      <point x="547" y="1060" type="line" smooth="yes"/>
      <point x="538" y="1094"/>
      <point x="517" y="1195"/>
      <point x="510" y="1228" type="qcurve"/>
      <point x="500" y="1228" type="line"/>
      <point x="493" y="1195"/>
      <point x="473" y="1094"/>
      <point x="463" y="1060" type="qcurve" smooth="yes"/>
    </contour>
  </outline>
</glyph>
<glyph name="Lambda" format="2">
  <advance width="910"/>
  <unicode hex="039B"/>
  <outline>
    <contour>
      <point x="0" y="0" type="line"/>
      <point x="374" y="1466" type="line"/>
      <point x="546" y="1466" type="line"/>
      <point x="910" y="0" type="line"/>
      <point x="710" y="0" type="line"/>
      <point x="500" y="960" type="line" smooth="yes"/>
      <point x="492" y="995"/>
      <point x="470" y="1098"/>
      <point x="463" y="1131" type="qcurve"/>
      <point x="453" y="1131" type="line"/>
      <point x="446" y="1098"/>
      <point x="424" y="995"/>
      <point x="416" y="960" type="qcurve" smooth="yes"/>
      <point x="192" y="0" type="line"/>
    </contour>
  </outline>
</glyph>
<glyph name="Xi" format="2">
  <advance width="1140"/>
  <unicode hex="039E"/>
  <outline>
    <contour>
      <point x="68" y="0" type="line"/>
      <point x="68" y="178" type="line"/>
      <point x="1072" y="178" type="line"/>
      <point x="1072" y="0" type="line"/>
    </contour>
    <contour>
      <point x="170" y="662" type="line"/>
      <point x="170" y="840" type="line"/>
      <point x="970" y="840" type="line"/>
      <point x="970" y="662" type="line"/>
    </contour>
    <contour>
      <point x="68" y="1278" type="line"/>
      <point x="68" y="1456" type="line"/>
      <point x="1072" y="1456" type="line"/>
      <point x="1072" y="1278" type="line"/>
    </contour>
  </outline>
</glyph>
<glyph name="delta" format="2">
  <advance width="903"/>
  <unicode hex="03B4"/>
  <outline>
    <contour>
      <point x="449" y="-30" type="qcurve" smooth="yes"/>
      <point x="273" y="-30"/>
      <point x="85" y="258"/>
      <point x="85" y="460" type="qcurve"/>
      <point x="85" y="490" type="line"/>
      <point x="85" y="707"/>
      <point x="289" y="993"/>
      <point x="441" y="1011" type="qcurve"/>
      <point x="515" y="941" type="line"/>
      <point x="374" y="903"/>
      <point x="261" y="661"/>
      <point x="261" y="498" type="qcurve" smooth="yes"/>
      <point x="261" y="478" type="line" smooth="yes"/>
      <point x="261" y="306"/>
      <point x="359" y="118"/>
      <point x="447" y="118" type="qcurve" smooth="yes"/>
      <point x="540" y="118"/>
      <point x="631" y="329"/>
      <point x="631" y="473" type="qcurve" smooth="yes"/>
      <point x="631" y="502" type="line" smooth="yes"/>
      <point x="631" y="619"/>
      <point x="564" y="832"/>
      <point x="466" y="902" type="qcurve" smooth="yes"/>
      <point x="346" y="988"/>
      <point x="155" y="1177"/>
      <point x="155" y="1276" type="qcurve" smooth="yes"/>
      <point x="155" y="1393"/>
      <point x="309" y="1556"/>
      <point x="442" y="1556" type="qcurve" smooth="yes"/>
      <point x="539" y="1556"/>
      <point x="697" y="1512"/>
      <point x="737" y="1487" type="qcurve"/>
      <point x="723" y="1334" type="line"/>
      <point x="660" y="1375"/>
      <point x="545" y="1405"/>
      <point x="489" y="1405" type="qcurve" smooth="yes"/>
      <point x="403" y="1405"/>
      <point x="323" y="1321"/>
      <point x="323" y="1250" type="qcurve" smooth="yes"/>
      <point x="323" y="1195"/>
      <point x="399" y="1130"/>
      <point x="519" y="1038" type="qcurve" smooth="yes"/>
      <point x="668" y="924"/>
      <point x="818" y="683"/>
      <point x="818" y="522" type="qcurve"/>
      <point x="818" y="483" type="line"/>
      <point x="818" y="255"/>
      <point x="617" y="-30"/>
    </contour>
  </outline>
</glyph>
<glyph name="epsilon" format="2">
  <advance width="860"/>
  <unicode hex="03B5"/>
  <outline>
    <contour>
      <point x="440" y="-30" type="qcurve" smooth="yes"/>
      <point x="278" y="-30"/>
      <point x="99" y="143"/>
      <point x="99" y="261" type="qcurve" smooth="yes"/>
      <point x="99" y="390"/>
      <point x="241" y="520"/>
      <point x="378" y="537" type="qcurve"/>
      <point x="376" y="514" type="line"/>
      <point x="244" y="539"/>
      <point x="128" y="658"/>
      <point x="128" y="788" type="qcurve" smooth="yes"/>
      <point x="128" y="928"/>
      <point x="304" y="1081"/>
      <point x="450" y="1081" type="qcurve" smooth="yes"/>
      <point x="606" y="1081"/>
      <point x="786" y="890"/>
      <point x="786" y="710" type="qcurve"/>
      <point x="606" y="710" type="line"/>
      <point x="606" y="825"/>
      <point x="536" y="930"/>
      <point x="462" y="930" type="qcurve" smooth="yes"/>
      <point x="396" y="930"/>
      <point x="327" y="835"/>
      <point x="327" y="763" type="qcurve" smooth="yes"/>
      <point x="327" y="684"/>
      <point x="401" y="600"/>
      <point x="465" y="600" type="qcurve" smooth="yes"/>
      <point x="581" y="600" type="line"/>
      <point x="581" y="455" type="line"/>
      <point x="463" y="455" type="line" smooth="yes"/>
      <point x="379" y="455"/>
      <point x="289" y="358"/>
      <point x="289" y="276" type="qcurve" smooth="yes"/>
      <point x="289" y="190"/>
      <point x="371" y="122"/>
      <point x="444" y="122" type="qcurve" smooth="yes"/>
      <point x="521" y="122"/>
      <point x="616" y="243"/>
      <point x="616" y="342" type="qcurve"/>
      <point x="796" y="342" type="line"/>
      <point x="796" y="191"/>
      <point x="604" y="-30"/>
    </contour>
  </outline>
</glyph>
<glyph name="eta" format="2">
  <advance width="916"/>
  <unicode hex="03B7"/>
  <outline>
    <contour>
      <point x="592" y="-416" type="line"/>
      <point x="592" y="710" type="line" smooth="yes"/>
      <point x="592" y="836"/>
      <point x="534" y="916"/>
      <point x="478" y="916" type="qcurve" smooth="yes"/>
      <point x="431" y="916"/>
      <point x="359" y="839"/>
      <point x="334" y="774" type="qcurve"/>
      <point x="334" y="0" type="line"/>
      <point x="148" y="0" type="line"/>
      <point x="148" y="1052" type="line"/>
      <point x="316" y="1052" type="line"/>
      <point x="324" y="946" type="line"/>
      <point x="330" y="946" type="line"/>
      <point x="366" y="1007"/>
      <point x="478" y="1072"/>
      <point x="545" y="1072" type="qcurve" smooth="yes"/>
      <point x="652" y="1072"/>
      <point x="778" y="920"/>
      <point x="778" y="708" type="qcurve" smooth="yes"/>
      <point x="778" y="-416" type="line"/>
    </contour>
  </outline>
</glyph>
<glyph name="pi" format="2">
  <advance width="944"/>
  <unicode hex="03C0"/>
  <outline>
    <contour>
      <point x="0" y="900" type="line"/>
      <point x="0" y="1052" type="line"/>
      <point x="894" y="1052" type="line"/>
      <point x="894" y="900" type="line"/>
    </contour>
    <contour>
      <point x="146" y="0" type="line"/>
      <point x="146" y="971" type="line"/>
      <point x="332" y="971" type="line"/>
      <point x="332" y="0" type="line"/>
    </contour>
    <contour>
      <point x="786" y="-20" type="qcurve" smooth="yes"/>
      <point x="671" y="-20"/>
      <point x="561" y="99"/>
      <point x="561" y="250" type="qcurve"/>
      <point x="561" y="971" type="line"/>
      <point x="747" y="971" type="line"/>
      <point x="747" y="289" type="line"/>
      <point x="747" y="206"/>
      <point x="778" y="140"/>
      <point x="834" y="140" type="qcurve"/>
      <point x="848" y="140"/>
      <point x="880" y="149"/>
      <point x="891" y="154" type="qcurve"/>
      <point x="891" y="2" type="line"/>
      <point x="873" y="-7"/>
      <point x="824" y="-20"/>
    </contour>
  </outline>
</glyph>
<glyph name="rho" format="2">
  <advance width="927"/>
  <unicode hex="03C1"/>
  <outline>
    <contour>
      <point x="148" y="-416" type="line"/>
      <point x="148" y="541" type="line" smooth="yes"/>
      <point x="148" y="788"/>
      <point x="333" y="1072"/>
      <point x="494" y="1072" type="qcurve" smooth="yes"/>
      <point x="672" y="1072"/>
      <point x="842" y="782"/>
      <point x="842" y="552" type="qcurve" smooth="yes"/>
      <point x="842" y="520" type="line" smooth="yes"/>
      <point x="842" y="290"/>
      <point x="664" y="-20"/>
      <point x="539" y="-20" type="qcurve" smooth="yes"/>
      <point x="466" y="-20"/>
      <point x="367" y="35"/>
      <point x="334" y="94" type="qcurve"/>
      <point x="334" y="-416" type="line"/>
    </contour>
    <contour>
      <point x="487" y="132" type="qcurve" smooth="yes"/>
      <point x="572" y="132"/>
      <point x="652" y="360"/>
      <point x="652" y="520" type="qcurve" smooth="yes"/>
      <point x="652" y="552" type="line" smooth="yes"/>
      <point x="652" y="712"/>
      <point x="578" y="920"/>
      <point x="493" y="920" type="qcurve" smooth="yes"/>
      <point x="425" y="920"/>
      <point x="334" y="783"/>
      <point x="334" y="586" type="qcurve"/>
      <point x="334" y="272" type="line"/>
      <point x="353" y="207"/>
      <point x="431" y="132"/>
    </contour>
  </outline>
</glyph>
<glyph name="sigma" format="2">
  <advance width="943"/>
  <unicode hex="03C3"/>
  <outline>
    <contour>
      <point x="452" y="-30" type="qcurve" smooth="yes"/>
      <point x="285" y="-30"/>
      <point x="85" y="260"/>
      <point x="85" y="491" type="qcurve" smooth="yes"/>
      <point x="85" y="522" type="line" smooth="yes"/>
      <point x="85" y="754"/>
      <point x="292" y="1052"/>
      <point x="473" y="1052" type="qcurve" smooth="yes"/>
      <point x="893" y="1052" type="line"/>
      <point x="893" y="890" type="line"/>
      <point x="678" y="890" type="line"/>
      <point x="678" y="913" type="line"/>
      <point x="739" y="866"/>
      <point x="819" y="675"/>
      <point x="819" y="526" type="qcurve" smooth="yes"/>
      <point x="819" y="495" type="line" smooth="yes"/>
      <point x="819" y="264"/>
      <point x="619" y="-30"/>
    </contour>
    <contour>
      <point x="453" y="122" type="qcurve" smooth="yes"/>
      <point x="541" y="122"/>
      <point x="630" y="337"/>
      <point x="630" y="495" type="qcurve" smooth="yes"/>
      <point x="630" y="526" type="line" smooth="yes"/>
      <point x="630" y="678"/>
      <point x="540" y="900"/>
      <point x="458" y="900" type="qcurve"/>
      <point x="371" y="900"/>
      <point x="275" y="677"/>
      <point x="275" y="522" type="qcurve" smooth="yes"/>
      <point x="275" y="491" type="line" smooth="yes"/>
      <point x="275" y="333"/>
      <point x="364" y="122"/>
    </contour>
  </outline>
</glyph>
<glyph name="upsilon" format="2">
  <advance width="977"/>
  <unicode hex="03C5"/>
  <outline>
    <contour>
      <point x="488" y="-20" type="qcurve" smooth="yes"/>
      <point x="302" y="-20"/>
      <point x="138" y="201"/>
      <point x="138" y="403" type="qcurve" smooth="yes"/>
      <point x="138" y="1052" type="line"/>
      <point x="324" y="1052" type="line"/>
      <point x="324" y="401" type="line" smooth="yes"/>
      <point x="324" y="275"/>
      <point x="403" y="136"/>
      <point x="488" y="136" type="qcurve" smooth="yes"/>
      <point x="573" y="136"/>
      <point x="654" y="275"/>
      <point x="653" y="401" type="qcurve" smooth="yes"/>
      <point x="653" y="1052" type="line"/>
      <point x="839" y="1052" type="line"/>
      <point x="839" y="403" type="line" smooth="yes"/>
      <point x="839" y="201"/>
      <point x="675" y="-20"/>
    </contour>
  </outline>
</glyph>
<glyph name="phi" format="2">
  <advance width="1232"/>
  <unicode hex="03C6"/>
  <outline>
    <contour>
      <point x="523" y="-416" type="line"/>
      <point x="523" y="-30" type="line"/>
      <point x="307" y="-20"/>
      <point x="85" y="267"/>
      <point x="85" y="510" type="qcurve" smooth="yes"/>
      <point x="85" y="542" type="line" smooth="yes"/>
      <point x="85" y="785"/>
      <point x="307" y="1072"/>
      <point x="523" y="1082" type="qcurve"/>
      <point x="523" y="1536" type="line"/>
      <point x="709" y="1536" type="line"/>
      <point x="709" y="1082" type="line"/>
      <point x="925" y="1072"/>
      <point x="1147" y="785"/>
      <point x="1147" y="542" type="qcurve" smooth="yes"/>
      <point x="1147" y="510" type="line" smooth="yes"/>
      <point x="1147" y="267"/>
      <point x="925" y="-20"/>
      <point x="709" y="-30" type="qcurve"/>
      <point x="709" y="-416" type="line"/>
    </contour>
    <contour>
      <point x="523" y="122" type="qcurve"/>
      <point x="523" y="930" type="line"/>
      <point x="386" y="920"/>
      <point x="275" y="710"/>
      <point x="275" y="542" type="qcurve" smooth="yes"/>
      <point x="275" y="510" type="line" smooth="yes"/>
      <point x="275" y="342"/>
      <point x="386" y="132"/>
    </contour>
    <contour>
      <point x="709" y="122" type="line"/>
      <point x="846" y="132"/>
      <point x="957" y="342"/>
      <point x="957" y="510" type="qcurve" smooth="yes"/>
      <point x="957" y="542" type="line" smooth="yes"/>
      <point x="957" y="710"/>
      <point x="846" y="920"/>
      <point x="709" y="930" type="qcurve"/>
    </contour>
  </outline>
</glyph>
<glyph name="Lje" format="2">
  <advance width="1628"/>
  <unicode hex="0409"/>
  <outline>
    <contour>
      <point x="279" y="1456" type="line"/>
      <point x="977" y="1456" type="line"/>
      <point x="977" y="887" type="line"/>
      <point x="1139" y="887" type="line" smooth="yes"/>
      <point x="1339" y="887"/>
      <point x="1578" y="646"/>
      <point x="1578" y="446" type="qcurve" smooth="yes"/>
      <point x="1578" y="246"/>
      <point x="1339" y="1"/>
      <point x="1139" y="1" type="qcurve" smooth="yes"/>
      <point x="785" y="1" type="line"/>
      <point x="785" y="1298" type="line"/>
      <point x="450" y="1298" type="line"/>
      <point x="428" y="542" type="line" smooth="yes"/>
      <point x="420" y="258"/>
      <point x="273" y="-30"/>
      <point x="119" y="-30" type="qcurve" smooth="yes"/>
      <point x="95" y="-30"/>
      <point x="39" y="-23"/>
      <point x="10" y="-13" type="qcurve"/>
      <point x="10" y="151" type="line"/>
      <point x="34" y="143"/>
      <point x="64" y="138"/>
      <point x="85" y="138" type="qcurve" smooth="yes"/>
      <point x="167" y="138"/>
      <point x="237" y="336"/>
      <point x="250" y="575" type="qcurve" smooth="yes"/>
    </contour>
    <contour>
      <point x="977" y="729" type="line"/>
      <point x="977" y="159" type="line"/>
      <point x="1139" y="159" type="line" smooth="yes"/>
      <point x="1269" y="159"/>
      <point x="1386" y="326"/>
      <point x="1386" y="446" type="qcurve" smooth="yes"/>
      <point x="1386" y="566"/>
      <point x="1269" y="729"/>
      <point x="1139" y="729" type="qcurve" smooth="yes"/>
    </contour>
  </outline>
</glyph>
<glyph name="Nje" format="2">
  <advance width="1637"/>
  <unicode hex="040A"/>
  <outline>
    <contour>
      <point x="170" y="0" type="line"/>
      <point x="170" y="1456" type="line"/>
      <point x="362" y="1456" type="line"/>
      <point x="362" y="870" type="line"/>
      <point x="796" y="870" type="line"/>
      <point x="796" y="1456" type="line"/>
      <point x="988" y="1456" type="line"/>
      <point x="988" y="870" type="line"/>
      <point x="1149" y="870" type="line" smooth="yes"/>
      <point x="1349" y="870"/>
      <point x="1587" y="633"/>
      <point x="1587" y="437" type="qcurve" smooth="yes"/>
      <point x="1587" y="241"/>
      <point x="1349" y="0"/>
      <point x="1149" y="0" type="qcurve" smooth="yes"/>
      <point x="796" y="0" type="line"/>
      <point x="796" y="712" type="line"/>
      <point x="362" y="712" type="line"/>
      <point x="362" y="0" type="line"/>
    </contour>
    <contour>
      <point x="988" y="712" type="line"/>
      <point x="988" y="158" type="line"/>
      <point x="1149" y="158" type="line" smooth="yes"/>
      <point x="1279" y="158"/>
      <point x="1395" y="320"/>
      <point x="1395" y="437" type="qcurve" smooth="yes"/>
      <point x="1395" y="554"/>
      <point x="1279" y="712"/>
      <point x="1149" y="712" type="qcurve" smooth="yes"/>
    </contour>
  </outline>
</glyph>
<glyph name="Ghe" format="2">
  <advance width="837"/>
  <unicode hex="0413"/>
  <outline>
    <contour>
      <point x="170" y="0" type="line"/>
      <point x="170" y="1456" type="line"/>
      <point x="812" y="1456" type="line"/>
      <point x="812" y="1298" type="line"/>
      <point x="362" y="1298" type="line"/>
      <point x="362" y="0" type="line"/>
    </contour>
  </outline>
</glyph>
<glyph name="Icyr" format="2">
  <advance width="1208"/>
  <unicode hex="0418"/>
  <guideline x="739" y="930" angle="90" identifier="jpSOnFR6u4"/>
  <outline>
    <contour>
      <point x="1038" y="0" type="line"/>
      <point x="846" y="0" type="line"/>
      <point x="846" y="983" type="line" smooth="yes"/>
      <point x="846" y="1013"/>
      <point x="847" y="1088"/>
      <point x="848" y="1118" type="qcurve"/>
      <point x="841" y="1118" type="line"/>
      <point x="827" y="1093"/>
      <point x="814" y="1036"/>
      <point x="800" y="1003" type="qcurve" smooth="yes"/>
      <point x="377" y="0" type="line"/>
      <point x="170" y="0" type="line"/>
      <point x="170" y="1456" type="line"/>
      <point x="362" y="1456" type="line"/>
      <point x="362" y="483" type="line" smooth="yes"/>
      <point x="362" y="453"/>
      <point x="361" y="378"/>
      <point x="360" y="348" type="qcurve"/>
      <point x="368" y="348" type="line"/>
      <point x="380" y="373"/>
      <point x="391" y="429"/>
      <point x="405" y="463" type="qcurve" smooth="yes"/>
      <point x="831" y="1456" type="line"/>
      <point x="1038" y="1456" type="line"/>
    </contour>
  </outline>
</glyph>
<glyph name="Soft" format="2">
  <advance width="1011"/>
  <unicode hex="042C"/>
  <outline>
    <contour>
      <point x="170" y="1456" type="line"/>
      <point x="170" y="0" type="line"/>
      <point x="521" y="0" type="line" smooth="yes"/>
      <point x="722" y="0"/>
      <point x="961" y="245"/>
      <point x="961" y="445" type="qcurve" smooth="yes"/>
      <point x="961" y="645"/>
      <point x="722" y="886"/>
      <point x="521" y="886" type="qcurve" smooth="yes"/>
      <point x="362" y="886" type="line"/>
      <point x="362" y="1456" type="line"/>
    </contour>
    <contour>
      <point x="362" y="728" type="line"/>
      <point x="521" y="728" type="line" smooth="yes"/>
      <point x="652" y="728"/>
      <point x="769" y="565"/>
      <point x="769" y="445" type="qcurve" smooth="yes"/>
      <point x="769" y="325"/>
      <point x="652" y="158"/>
      <point x="521" y="158" type="qcurve" smooth="yes"/>
      <point x="362" y="158" type="line"/>
    </contour>
  </outline>
</glyph>
<glyph name="Ecyr" format="2">
  <advance width="1075"/>
  <unicode hex="042D"/>
  <guideline x="1147" y="753" angle="90" identifier="Ovo68woMtl"/>
  <outline>
    <contour>
      <point x="863" y="830" type="line"/>
      <point x="863" y="672" type="line"/>
      <point x="380" y="672" type="line"/>
      <point x="380" y="830" type="line"/>
    </contour>
    <contour>
      <point x="766" y="674" type="qcurve" smooth="yes"/>
      <point x="766" y="797" type="line" smooth="yes"/>
      <point x="766" y="1062"/>
      <point x="631" y="1322"/>
      <point x="516" y="1322" type="qcurve" smooth="yes"/>
      <point x="409" y="1322"/>
      <point x="279" y="1143"/>
      <point x="279" y="1004" type="qcurve" smooth="yes"/>
      <point x="279" y="990" type="line"/>
      <point x="84" y="990" type="line"/>
      <point x="84" y="1003" type="line" smooth="yes"/>
      <point x="84" y="1215"/>
      <point x="309" y="1486"/>
      <point x="507" y="1486" type="qcurve" smooth="yes"/>
      <point x="712" y="1486"/>
      <point x="960" y="1117"/>
      <point x="960" y="795" type="qcurve" smooth="yes"/>
      <point x="960" y="707" type="line" smooth="yes"/>
      <point x="960" y="331"/>
      <point x="703" y="-30"/>
      <point x="503" y="-30" type="qcurve" smooth="yes"/>
      <point x="307" y="-30"/>
      <point x="84" y="258"/>
      <point x="84" y="457" type="qcurve" smooth="yes"/>
      <point x="84" y="466" type="line"/>
      <point x="290" y="466" type="line"/>
      <point x="290" y="451" type="line" smooth="yes"/>
      <point x="290" y="317"/>
      <point x="401" y="134"/>
      <point x="513" y="134" type="qcurve" smooth="yes"/>
      <point x="642" y="134"/>
      <point x="766" y="431"/>
    </contour>
  </outline>
</glyph>
<glyph name="be" format="2">
  <advance width="910"/>
  <unicode hex="0431"/>
  <outline>
    <contour>
      <point x="279" y="522" type="qcurve" smooth="yes"/>
      <point x="279" y="490" type="line" smooth="yes"/>
      <point x="279" y="335"/>
      <point x="362" y="122"/>
      <point x="457" y="122" type="qcurve" smooth="yes"/>
      <point x="552.0" y="122.0"/>
      <point x="635" y="335"/>
      <point x="635" y="490" type="qcurve" smooth="yes"/>
      <point x="635" y="522" type="line" smooth="yes"/>
      <point x="635" y="677"/>
      <point x="553.0" y="890.0"/>
      <point x="457" y="890" type="qcurve" smooth="yes"/>
      <point x="361" y="890"/>
      <point x="279" y="677"/>
    </contour>
    <contour>
      <point x="521" y="1042.0" type="qcurve" smooth="yes"/>
      <point x="662" y="1042.0"/>
      <point x="825" y="745.0"/>
      <point x="825" y="522.0" type="qcurve" smooth="yes"/>
      <point x="825" y="490" type="line" smooth="yes"/>
      <point x="825" y="261"/>
      <point x="626" y="-30"/>
      <point x="460" y="-30" type="qcurve" smooth="yes"/>
      <point x="288" y="-30"/>
      <point x="95" y="263"/>
      <point x="95" y="605" type="qcurve" smooth="yes"/>
      <point x="95" y="631" type="line" smooth="yes"/>
      <point x="95" y="1046"/>
      <point x="281" y="1411"/>
      <point x="459" y="1455" type="qcurve" smooth="yes"/>
      <point x="581" y="1485"/>
      <point x="630" y="1511"/>
      <point x="635" y="1536" type="qcurve"/>
      <point x="799" y="1536" type="line"/>
      <point x="790" y="1431"/>
      <point x="672" y="1322"/>
      <point x="528" y="1286" type="qcurve" smooth="yes"/>
      <point x="383" y="1250"/>
      <point x="249.0" y="1021.0"/>
      <point x="238" y="801.0" type="qcurve"/>
      <point x="248" y="801.0" type="line"/>
      <point x="281" y="923.0"/>
      <point x="428" y="1042.0"/>
    </contour>
  </outline>
</glyph>
<glyph name="ghe" format="2">
  <advance width="704"/>
  <unicode hex="0433"/>
  <outline>
    <contour>
      <point x="148" y="1052" type="line"/>
      <point x="674" y="1052" type="line"/>
      <point x="674" y="907" type="line"/>
      <point x="334" y="907" type="line"/>
      <point x="334" y="0" type="line"/>
      <point x="148" y="0" type="line"/>
    </contour>
  </outline>
</glyph>
<glyph name="ze" format="2">
  <advance width="925"/>
  <unicode hex="0437"/>
  <outline>
    <contour>
      <point x="452" y="-30.0" type="qcurve" smooth="yes"/>
      <point x="278.0" y="-30"/>
      <point x="89" y="164.0"/>
      <point x="89" y="319.0" type="qcurve" smooth="yes"/>
      <point x="89" y="342.0" type="line"/>
      <point x="270" y="342" type="line"/>
      <point x="270" y="317" type="line" smooth="yes"/>
      <point x="270.0" y="217.0"/>
      <point x="350" y="122"/>
      <point x="452" y="122" type="qcurve" smooth="yes"/>
      <point x="536" y="122"/>
      <point x="628" y="222"/>
      <point x="628" y="309" type="qcurve" smooth="yes"/>
      <point x="628.0" y="383.0"/>
      <point x="552.0" y="463.0"/>
      <point x="473" y="463.0" type="qcurve" smooth="yes"/>
      <point x="353" y="463" type="line"/>
      <point x="353" y="607" type="line"/>
      <point x="453" y="607" type="line" smooth="yes"/>
      <point x="534.0" y="607.0"/>
      <point x="606" y="690"/>
      <point x="606.0" y="769" type="qcurve" smooth="yes"/>
      <point x="606" y="842"/>
      <point x="529" y="930"/>
      <point x="460" y="930" type="qcurve" smooth="yes"/>
      <point x="372" y="930"/>
      <point x="283.0" y="827.0"/>
      <point x="283" y="733" type="qcurve" smooth="yes"/>
      <point x="283" y="710" type="line"/>
      <point x="109" y="710.0" type="line"/>
      <point x="109" y="733.0" type="line" smooth="yes"/>
      <point x="109" y="900.0"/>
      <point x="294" y="1082"/>
      <point x="461" y="1082.0" type="qcurve" smooth="yes"/>
      <point x="618" y="1082.0"/>
      <point x="783.0" y="931.0"/>
      <point x="783.0" y="808" type="qcurve" smooth="yes"/>
      <point x="783" y="695"/>
      <point x="679" y="566"/>
      <point x="600" y="544" type="qcurve"/>
      <point x="600" y="541" type="line"/>
      <point x="692" y="525"/>
      <point x="815" y="404"/>
      <point x="815.0" y="280" type="qcurve" smooth="yes"/>
      <point x="815.0" y="138"/>
      <point x="620" y="-30"/>
    </contour>
  </outline>
</glyph>
<glyph name="icyr" format="2">
  <advance width="998"/>
  <unicode hex="0438"/>
  <outline>
    <contour>
      <point x="148" y="0" type="line"/>
      <point x="148" y="1052" type="line"/>
      <point x="334" y="1052" type="line"/>
      <point x="334" y="463" type="line" smooth="yes"/>
      <point x="334" y="433"/>
      <point x="333" y="358"/>
      <point x="332" y="328" type="qcurve"/>
      <point x="339" y="328" type="line"/>
      <point x="353" y="353"/>
      <point x="391" y="459"/>
      <point x="407" y="493" type="qcurve" smooth="yes"/>
      <point x="664" y="1052" type="line"/>
      <point x="850" y="1052" type="line"/>
      <point x="850" y="0" type="line"/>
      <point x="664" y="0" type="line"/>
      <point x="664" y="588" type="line" smooth="yes"/>
      <point x="664" y="618"/>
      <point x="665" y="693"/>
      <point x="666" y="723" type="qcurve"/>
      <point x="659" y="723" type="line"/>
      <point x="645" y="698"/>
      <point x="606" y="591"/>
      <point x="591" y="558" type="qcurve" smooth="yes"/>
      <point x="334" y="0" type="line"/>
    </contour>
  </outline>
</glyph>
<glyph name="ef" format="2">
  <advance width="1164"/>
  <unicode hex="0444"/>
  <outline>
    <contour>
      <point x="270" y="510" type="line" smooth="yes"/>
      <point x="270" y="342"/>
      <point x="368" y="132"/>
      <point x="489" y="122" type="qcurve"/>
      <point x="489" y="930" type="line"/>
      <point x="368" y="920"/>
      <point x="270" y="710"/>
      <point x="270" y="542" type="qcurve" smooth="yes"/>
    </contour>
    <contour>
      <point x="894" y="542" type="line" smooth="yes"/>
      <point x="894" y="710"/>
      <point x="796" y="920"/>
      <point x="675" y="930" type="qcurve"/>
      <point x="675" y="122" type="line"/>
      <point x="796" y="132"/>
      <point x="894" y="342"/>
      <point x="894" y="510" type="qcurve" smooth="yes"/>
    </contour>
    <contour>
      <point x="489" y="-30" type="line"/>
      <point x="290" y="-20"/>
      <point x="85" y="267"/>
      <point x="85" y="510" type="qcurve" smooth="yes"/>
      <point x="85" y="542" type="line" smooth="yes"/>
      <point x="85" y="785"/>
      <point x="290" y="1072"/>
      <point x="489" y="1082" type="qcurve"/>
      <point x="489" y="1536" type="line"/>
      <point x="675" y="1536" type="line"/>
      <point x="675" y="1082" type="line"/>
      <point x="874" y="1072"/>
      <point x="1079" y="785"/>
      <point x="1079" y="542" type="qcurve" smooth="yes"/>
      <point x="1079" y="510" type="line" smooth="yes"/>
      <point x="1079" y="267"/>
      <point x="874" y="-20"/>
      <point x="675" y="-30" type="qcurve"/>
      <point x="675" y="-416" type="line"/>
      <point x="489" y="-416" type="line"/>
    </contour>
  </outline>
</glyph>
<glyph name="tse" format="2">
  <advance width="975"/>
  <unicode hex="0446"/>
  <outline>
    <contour>
      <point x="787" y="-270" type="line"/>
      <point x="787" y="0" type="line"/>
      <point x="148" y="0" type="line"/>
      <point x="148" y="1052" type="line"/>
      <point x="334" y="1052" type="line"/>
      <point x="334" y="145" type="line"/>
      <point x="614" y="145" type="line"/>
      <point x="614" y="1052" type="line"/>
      <point x="800" y="1052" type="line"/>
      <point x="800" y="145" type="line"/>
      <point x="955" y="145" type="line"/>
      <point x="955" y="-270" type="line"/>
    </contour>
  </outline>
</glyph>
<glyph name="soft" format="2">
  <advance width="878"/>
  <unicode hex="044C"/>
  <outline>
    <contour>
      <point x="334" y="1052" type="line"/>
      <point x="334" y="692" type="line"/>
      <point x="476" y="692" type="line" smooth="yes"/>
      <point x="644" y="692"/>
      <point x="818" y="506"/>
      <point x="818" y="348" type="qcurve" smooth="yes"/>
      <point x="818" y="190"/>
      <point x="644" y="0"/>
      <point x="476" y="0" type="qcurve" smooth="yes"/>
      <point x="148" y="0" type="line"/>
      <point x="148" y="1052" type="line"/>
    </contour>
    <contour>
      <point x="476" y="547" type="qcurve" smooth="yes"/>
      <point x="334" y="547" type="line"/>
      <point x="334" y="145" type="line"/>
      <point x="476" y="145" type="line" smooth="yes"/>
      <point x="571" y="145"/>
      <point x="632" y="260"/>
      <point x="632" y="348" type="qcurve" smooth="yes"/>
      <point x="632" y="435"/>
      <point x="571" y="547"/>
    </contour>
  </outline>
</glyph>
<glyph name="yu" format="2">
  <advance width="1312"/>
  <unicode hex="044E"/>
  <guideline x="645" y="487" angle="90" identifier="5WLHpa9SA0"/>
  <outline>
    <contour>
      <point x="148" y="1052" type="line"/>
      <point x="334" y="1052" type="line"/>
      <point x="334" y="610" type="line"/>
      <point x="646" y="610" type="line"/>
      <point x="646" y="465" type="line"/>
      <point x="334" y="465" type="line"/>
      <point x="334" y="0" type="line"/>
      <point x="148" y="0" type="line"/>
    </contour>
    <contour>
      <point x="494" y="510.0" type="qcurve" smooth="yes"/>
      <point x="494" y="542.0" type="line" smooth="yes"/>
      <point x="494" y="780.0"/>
      <point x="693" y="1082.0"/>
      <point x="861" y="1082.0" type="qcurve" smooth="yes"/>
      <point x="1028" y="1082.0"/>
      <point x="1227" y="780.0"/>
      <point x="1227" y="542.0" type="qcurve" smooth="yes"/>
      <point x="1227" y="510.0" type="line" smooth="yes"/>
      <point x="1227" y="272.0"/>
      <point x="1028" y="-30.0"/>
      <point x="861" y="-30.0" type="qcurve" smooth="yes"/>
      <point x="693" y="-30.0"/>
      <point x="494" y="272.0"/>
    </contour>
    <contour>
      <point x="684" y="542.0" type="qcurve" smooth="yes"/>
      <point x="684" y="510.0" type="line"/>
      <point x="684" y="347.0"/>
      <point x="773" y="122.0"/>
      <point x="861" y="122.0" type="qcurve" smooth="yes"/>
      <point x="950" y="122.0"/>
      <point x="1038" y="347.0"/>
      <point x="1038" y="510.0" type="qcurve" smooth="yes"/>
      <point x="1038" y="542.0" type="line" smooth="yes"/>
      <point x="1038" y="705.0"/>
      <point x="950" y="930.0"/>
      <point x="861" y="930.0" type="qcurve" smooth="yes"/>
      <point x="773" y="930.0"/>
      <point x="684" y="705.0"/>
    </contour>
  </outline>
</glyph>
<glyph name="lje" format="2">
  <advance width="1376"/>
  <unicode hex="0459"/>
  <outline>
    <contour>
      <point x="821" y="1052" type="line"/>
      <point x="821" y="692" type="line"/>
      <point x="963" y="692" type="line" smooth="yes"/>
      <point x="1131" y="692"/>
      <point x="1306" y="506"/>
      <point x="1306" y="348" type="qcurve" smooth="yes"/>
      <point x="1306" y="190"/>
      <point x="1131" y="0"/>
      <point x="963" y="0" type="qcurve" smooth="yes"/>
      <point x="635" y="0" type="line"/>
      <point x="635" y="907" type="line"/>
      <point x="414" y="907" type="line"/>
      <point x="396" y="490" type="line" smooth="yes"/>
      <point x="384" y="217"/>
      <point x="272" y="-22"/>
      <point x="120" y="-22" type="qcurve" smooth="yes"/>
      <point x="86" y="-22"/>
      <point x="29" y="-13"/>
      <point x="10" y="-4" type="qcurve"/>
      <point x="10" y="152" type="line"/>
      <point x="27" y="145"/>
      <point x="64" y="139"/>
      <point x="86" y="139" type="qcurve" smooth="yes"/>
      <point x="165" y="139"/>
      <point x="217" y="301"/>
      <point x="226" y="516" type="qcurve" smooth="yes"/>
      <point x="249" y="1052" type="line"/>
    </contour>
    <contour>
      <point x="953" y="547" type="qcurve" smooth="yes"/>
      <point x="821" y="547" type="line"/>
      <point x="821" y="145" type="line"/>
      <point x="953" y="145" type="line" smooth="yes"/>
      <point x="1040.0" y="145.0"/>
      <point x="1119" y="260"/>
      <point x="1119" y="348" type="qcurve" smooth="yes"/>
      <point x="1119" y="435"/>
      <point x="1040.0" y="547.0"/>
    </contour>
  </outline>
</glyph>
<glyph name="Gheup" format="2">
  <advance width="877"/>
  <unicode hex="0490"/>
  <outline>
    <contour>
      <point x="170" y="0" type="line"/>
      <point x="170" y="1456" type="line"/>
      <point x="680" y="1456" type="line"/>
      <point x="680" y="1746" type="line"/>
      <point x="852" y="1746" type="line"/>
      <point x="852" y="1298" type="line"/>
      <point x="362" y="1298" type="line"/>
      <point x="362" y="0" type="line"/>
    </contour>
  </outline>
</glyph>
<glyph name="zhedescender" format="2">
  <advance width="1178"/>
  <unicode hex="0497"/>
  <outline>
    <contour>
      <point x="982" y="0" type="line"/>
      <point x="714" y="465" type="line"/>
      <point x="829" y="591" type="line"/>
      <point x="1114" y="113" type="line"/>
      <point x="1114" y="0" type="line"/>
    </contour>
    <contour>
      <point x="688" y="1052" type="line"/>
      <point x="688" y="0" type="line"/>
      <point x="502" y="0" type="line"/>
      <point x="502" y="1052" type="line"/>
    </contour>
    <contour>
      <point x="595" y="610" type="line"/>
      <point x="714" y="610" type="line"/>
      <point x="939" y="1052" type="line"/>
      <point x="1143" y="1052" type="line"/>
      <point x="811" y="465" type="line"/>
      <point x="595" y="465" type="line"/>
    </contour>
    <contour>
      <point x="982" y="145" type="line"/>
      <point x="1217" y="145" type="line"/>
      <point x="1217" y="-270" type="line"/>
      <point x="1049" y="-270" type="line"/>
      <point x="1049" y="0" type="line"/>
      <point x="982" y="0" type="line"/>
    </contour>
    <contour>
      <point x="226" y="0" type="line"/>
      <point x="25" y="0" type="line"/>
      <point x="366" y="591" type="line"/>
      <point x="486" y="465" type="line"/>
    </contour>
    <contour>
      <point x="595" y="610" type="line"/>
      <point x="595" y="465" type="line"/>
      <point x="387" y="465" type="line"/>
      <point x="55" y="1052" type="line"/>
      <point x="251" y="1052" type="line"/>
      <point x="476" y="610" type="line"/>
    </contour>
  </outline>
</glyph>
<glyph name="kaverticalstrokecyr" format="2">
  <advance width="1080"/>
  <unicode hex="049D"/>
  <guideline x="547" y="651" angle="90" identifier="ATaXbxe4rK"/>
  <outline>
    <contour>
      <point x="599" y="852" type="line"/>
      <point x="599" y="200" type="line"/>
      <point x="434" y="200" type="line"/>
      <point x="434" y="852" type="line"/>
    </contour>
    <contour>
      <point x="334" y="1052" type="line"/>
      <point x="334" y="0" type="line"/>
      <point x="148" y="0" type="line"/>
      <point x="148" y="1052" type="line"/>
    </contour>
    <contour>
      <point x="902" y="0" type="line"/>
      <point x="639" y="465" type="line"/>
      <point x="754" y="591" type="line"/>
      <point x="1105" y="0" type="line"/>
    </contour>
    <contour>
      <point x="557" y="610" type="line"/>
      <point x="639" y="610" type="line"/>
      <point x="864" y="1052" type="line"/>
      <point x="1070" y="1052" type="line"/>
      <point x="735" y="465" type="line"/>
      <point x="557" y="465" type="line"/>
    </contour>
  </outline>
</glyph>
<glyph name="ustraight" format="2">
  <advance width="715"/>
  <unicode hex="04AF"/>
  <outline>
    <contour>
      <point x="258" y="-416" type="line"/>
      <point x="258" y="0" type="line"/>
      <point x="0" y="1052" type="line"/>
      <point x="170" y="1052" type="line"/>
      <point x="314" y="379" type="line" smooth="yes"/>
      <point x="323" y="338"/>
      <point x="347" y="209"/>
      <point x="351" y="189" type="qcurve"/>
      <point x="357" y="189" type="line"/>
      <point x="361" y="209"/>
      <point x="384" y="337"/>
      <point x="394" y="379" type="qcurve" smooth="yes"/>
      <point x="549" y="1052" type="line"/>
      <point x="715" y="1052" type="line"/>
      <point x="444" y="0" type="line"/>
      <point x="444" y="-416" type="line"/>
    </contour>
  </outline>
</glyph>
<glyph name="hadescender" format="2">
  <advance width="806"/>
  <unicode hex="04B3"/>
  <outline>
    <contour>
      <point x="20" y="0" type="line"/>
      <point x="296" y="582" type="line"/>
      <point x="324" y="582" type="line"/>
      <point x="524" y="1052" type="line"/>
      <point x="719" y="1052" type="line"/>
      <point x="448" y="484" type="line"/>
      <point x="430" y="484" type="line"/>
      <point x="225" y="0" type="line"/>
    </contour>
    <contour>
      <point x="55" y="1052" type="line"/>
      <point x="262" y="1052" type="line"/>
      <point x="462" y="582" type="line"/>
      <point x="478" y="582" type="line"/>
      <point x="721" y="71" type="line"/>
      <point x="721" y="0" type="line"/>
      <point x="547" y="0" type="line"/>
      <point x="342" y="484" type="line"/>
      <point x="326" y="484" type="line"/>
    </contour>
    <contour>
      <point x="565" y="145" type="line"/>
      <point x="835" y="145" type="line"/>
      <point x="835" y="-270" type="line"/>
      <point x="667" y="-270" type="line"/>
      <point x="667" y="0" type="line"/>
      <point x="565" y="0" type="line"/>
    </contour>
  </outline>
</glyph>
<glyph name="Chedescender-cy" format="2">
  <advance width="1188"/>
  <unicode hex="04B6"/>
  <outline>
    <contour>
      <point x="332" y="1032" type="line" smooth="yes"/>
      <point x="332" y="883"/>
      <point x="465" y="734"/>
      <point x="553" y="734" type="qcurve" smooth="yes"/>
      <point x="672" y="734"/>
      <point x="782" y="754"/>
      <point x="882" y="775" type="qcurve"/>
      <point x="882" y="617" type="line"/>
      <point x="748" y="595"/>
      <point x="663" y="576"/>
      <point x="538" y="576" type="qcurve" smooth="yes"/>
      <point x="359" y="576"/>
      <point x="140" y="826"/>
      <point x="140" y="1035" type="qcurve" smooth="yes"/>
      <point x="140" y="1456" type="line"/>
      <point x="332" y="1456" type="line"/>
    </contour>
    <contour>
      <point x="986" y="-290" type="line"/>
      <point x="986" y="0" type="line"/>
      <point x="786" y="0" type="line"/>
      <point x="786" y="1456" type="line"/>
      <point x="978" y="1456" type="line"/>
      <point x="978" y="158" type="line"/>
      <point x="1158" y="158" type="line"/>
      <point x="1158" y="-290" type="line"/>
    </contour>
  </outline>
</glyph>
<glyph name="chedescender-cy" format="2">
  <advance width="922"/>
  <unicode hex="04B7"/>
  <outline>
    <contour>
      <point x="311" y="743" type="line" smooth="yes"/>
      <point x="311" y="612"/>
      <point x="350" y="542"/>
      <point x="433" y="542" type="qcurve" smooth="yes"/>
      <point x="472" y="542"/>
      <point x="571" y="559"/>
      <point x="654" y="590" type="qcurve"/>
      <point x="654" y="444" type="line"/>
      <point x="567" y="426"/>
      <point x="471" y="396"/>
      <point x="397" y="396" type="qcurve" smooth="yes"/>
      <point x="241" y="396"/>
      <point x="125" y="553"/>
      <point x="125" y="743" type="qcurve" smooth="yes"/>
      <point x="125" y="1052" type="line"/>
      <point x="311" y="1052" type="line"/>
    </contour>
    <contour>
      <point x="734" y="-270" type="line"/>
      <point x="734" y="0" type="line"/>
      <point x="561" y="0" type="line"/>
      <point x="561" y="1052" type="line"/>
      <point x="747" y="1052" type="line"/>
      <point x="747" y="145" type="line"/>
      <point x="902" y="145" type="line"/>
      <point x="902" y="-270" type="line"/>
    </contour>
  </outline>
</glyph>
<glyph name="Cheverticalstroke-cy" format="2">
  <advance width="1148"/>
  <unicode hex="04B8"/>
  <outline>
    <contour>
      <point x="646" y="1106" type="line"/>
      <point x="646" y="250" type="line"/>
      <point x="476" y="250" type="line"/>
      <point x="476" y="1106" type="line"/>
    </contour>
    <contour>
      <point x="332" y="1032" type="line" smooth="yes"/>
      <point x="332" y="874"/>
      <point x="465" y="734"/>
      <point x="561" y="734" type="qcurve" smooth="yes"/>
      <point x="682" y="734"/>
      <point x="804" y="755"/>
      <point x="883" y="775" type="qcurve"/>
      <point x="883" y="617" type="line"/>
      <point x="792" y="601"/>
      <point x="673" y="576"/>
      <point x="533" y="576" type="qcurve" smooth="yes"/>
      <point x="367" y="576"/>
      <point x="140" y="827"/>
      <point x="140" y="1035" type="qcurve" smooth="yes"/>
      <point x="140" y="1456" type="line"/>
      <point x="332" y="1456" type="line"/>
    </contour>
    <contour>
      <point x="978" y="1456" type="line"/>
      <point x="978" y="0" type="line"/>
      <point x="786" y="0" type="line"/>
      <point x="786" y="1456" type="line"/>
    </contour>
  </outline>
</glyph>
<glyph name="cheverticalstroke-cy" format="2">
  <advance width="935"/>
  <unicode hex="04B9"/>
  <outline>
    <contour>
      <point x="541" y="852" type="line"/>
      <point x="541" y="200" type="line"/>
      <point x="376" y="200" type="line"/>
      <point x="376" y="852" type="line"/>
    </contour>
    <contour>
      <point x="311" y="743" type="line" smooth="yes"/>
      <point x="311" y="620"/>
      <point x="365" y="542"/>
      <point x="443" y="542" type="qcurve" smooth="yes"/>
      <point x="482" y="542"/>
      <point x="581" y="563"/>
      <point x="664" y="590" type="qcurve"/>
      <point x="664" y="444" type="line"/>
      <point x="580" y="419"/>
      <point x="481" y="396"/>
      <point x="407" y="396" type="qcurve" smooth="yes"/>
      <point x="261" y="396"/>
      <point x="125" y="553"/>
      <point x="125" y="743" type="qcurve" smooth="yes"/>
      <point x="125" y="1052" type="line"/>
      <point x="311" y="1052" type="line"/>
    </contour>
    <contour>
      <point x="601" y="0" type="line"/>
      <point x="601" y="1052" type="line"/>
      <point x="787" y="1052" type="line"/>
      <point x="787" y="0" type="line"/>
    </contour>
  </outline>
</glyph>
<glyph name="Schwacyr" format="2">
  <advance width="1107"/>
  <unicode hex="04D8"/>
  <guideline x="1229" y="803" angle="90" identifier="VFmslpHHWY"/>
  <guideline x="212" y="651" angle="90" identifier="xUBAC48rkv"/>
  <outline>
    <contour>
      <point x="213" y="790" type="line"/>
      <point x="922" y="790" type="line"/>
      <point x="922" y="632" type="line"/>
      <point x="213" y="632" type="line"/>
    </contour>
    <contour>
      <point x="799" y="797" type="line" smooth="yes"/>
      <point x="799" y="1052"/>
      <point x="686" y="1322"/>
      <point x="540" y="1322" type="qcurve" smooth="yes"/>
      <point x="423" y="1322"/>
      <point x="334" y="1177"/>
      <point x="334" y="1042" type="qcurve" smooth="yes"/>
      <point x="334" y="990" type="line"/>
      <point x="134" y="990" type="line"/>
      <point x="134" y="1040" type="line" smooth="yes"/>
      <point x="134" y="1240"/>
      <point x="359" y="1486"/>
      <point x="544" y="1486" type="qcurve" smooth="yes"/>
      <point x="748" y="1486"/>
      <point x="992" y="1117"/>
      <point x="992" y="795" type="qcurve" smooth="yes"/>
      <point x="992" y="707" type="line" smooth="yes"/>
      <point x="992" y="346"/>
      <point x="742" y="-30"/>
      <point x="554" y="-30" type="qcurve" smooth="yes"/>
      <point x="367" y="-30"/>
      <point x="116" y="326"/>
      <point x="116" y="667" type="qcurve" smooth="yes"/>
      <point x="116" y="790" type="line"/>
      <point x="310" y="790" type="line"/>
      <point x="310" y="634" type="line" smooth="yes"/>
      <point x="310" y="427"/>
      <point x="415" y="134"/>
      <point x="554" y="134" type="qcurve" smooth="yes"/>
      <point x="693" y="134"/>
      <point x="799" y="451"/>
      <point x="799" y="674" type="qcurve" smooth="yes"/>
    </contour>
  </outline>
</glyph>
<glyph name="obarcyr" format="2">
  <advance width="937"/>
  <unicode hex="04E9"/>
  <guideline x="182" y="511" angle="90" identifier="HuPjA4mSCL"/>
  <guideline x="982" y="610" angle="90" identifier="F596JbvFPy"/>
  <outline>
    <contour>
      <point x="180" y="610" type="line"/>
      <point x="740" y="610" type="line"/>
      <point x="740" y="465" type="line"/>
      <point x="180" y="465" type="line"/>
    </contour>
    <contour>
      <point x="85" y="510" type="qcurve" smooth="yes"/>
      <point x="85" y="542" type="line" smooth="yes"/>
      <point x="85" y="780"/>
      <point x="294" y="1082"/>
      <point x="469" y="1082" type="qcurve" smooth="yes"/>
      <point x="643" y="1082"/>
      <point x="852" y="780"/>
      <point x="852" y="542" type="qcurve" smooth="yes"/>
      <point x="852" y="510" type="line" smooth="yes"/>
      <point x="852" y="272"/>
      <point x="643" y="-30"/>
      <point x="469" y="-30" type="qcurve" smooth="yes"/>
      <point x="294" y="-30"/>
      <point x="85" y="272"/>
    </contour>
    <contour>
      <point x="275" y="552" type="qcurve" smooth="yes"/>
      <point x="275" y="500" type="line" smooth="yes"/>
      <point x="275" y="341"/>
      <point x="373" y="122"/>
      <point x="469" y="122" type="qcurve" smooth="yes"/>
      <point x="565" y="122"/>
      <point x="663" y="341"/>
      <point x="663" y="500" type="qcurve" smooth="yes"/>
      <point x="663" y="552" type="line" smooth="yes"/>
      <point x="663" y="711"/>
      <point x="565" y="930"/>
      <point x="469" y="930" type="qcurve" smooth="yes"/>
      <point x="373" y="930"/>
      <point x="275" y="711"/>
    </contour>
  </outline>
</glyph>
<glyph name="Hastroke-cy" format="2">
  <advance width="874"/>
  <unicode hex="04FE"/>
  <outline>
    <contour>
      <point x="155" y="824" type="line"/>
      <point x="727" y="824" type="line"/>
      <point x="727" y="658" type="line"/>
      <point x="155" y="658" type="line"/>
    </contour>
    <contour>
      <point x="25" y="0" type="line"/>
      <point x="381" y="806" type="line"/>
      <point x="400" y="806" type="line"/>
      <point x="632" y="1456" type="line"/>
      <point x="832" y="1456" type="line"/>
      <point x="493" y="670" type="line"/>
      <point x="473" y="670" type="line"/>
      <point x="225" y="0" type="line"/>
    </contour>
    <contour>
      <point x="42" y="1456" type="line"/>
      <point x="244" y="1456" type="line"/>
      <point x="476" y="806" type="line"/>
      <point x="493" y="806" type="line"/>
      <point x="849" y="0" type="line"/>
      <point x="646" y="0" type="line"/>
      <point x="397" y="670" type="line"/>
      <point x="381" y="670" type="line"/>
    </contour>
  </outline>
</glyph>
<glyph name="fraction" format="2">
  <advance width="342"/>
  <unicode hex="2044"/>
  <guideline x="0" y="901.0" angle="0" identifier="tcCoNUQTdD"/>
  <guideline x="0" y="555.0" angle="0" identifier="0lx51aIE0d"/>
  <outline>
    <contour>
      <point x="568.0" y="1414.0" type="line"/>
      <point x="-150.0" y="-43.0" type="line"/>
      <point x="-282.0" y="31.0" type="line"/>
      <point x="436.0" y="1488.0" type="line"/>
    </contour>
  </outline>
</glyph>
<glyph name="Euro" format="2">
  <advance width="864"/>
  <unicode hex="20AC"/>
  <outline>
    <contour>
      <point x="664" y="987" type="line"/>
      <point x="667" y="827" type="line"/>
      <point x="22" y="827" type="line"/>
      <point x="22" y="987" type="line"/>
    </contour>
    <contour>
      <point x="667" y="661" type="line"/>
      <point x="667" y="502" type="line"/>
      <point x="22" y="502" type="line"/>
      <point x="22" y="661" type="line"/>
    </contour>
    <contour>
      <point x="163" y="544" type="qcurve" smooth="yes"/>
      <point x="163" y="903" type="line" smooth="yes"/>
      <point x="163" y="1242"/>
      <point x="401" y="1484"/>
      <point x="534" y="1484" type="qcurve" smooth="yes"/>
      <point x="679" y="1484"/>
      <point x="803" y="1398"/>
      <point x="858" y="1337" type="qcurve"/>
      <point x="741" y="1206" type="line"/>
      <point x="708" y="1242"/>
      <point x="627" y="1306"/>
      <point x="548" y="1306" type="qcurve" smooth="yes"/>
      <point x="469" y="1306"/>
      <point x="342" y="1142"/>
      <point x="342" y="906" type="qcurve" smooth="yes"/>
      <point x="342" y="541" type="line" smooth="yes"/>
      <point x="342" y="312"/>
      <point x="447" y="145"/>
      <point x="569" y="145" type="qcurve" smooth="yes"/>
      <point x="655" y="145"/>
      <point x="731" y="208"/>
      <point x="768" y="242" type="qcurve"/>
      <point x="871" y="126" type="line"/>
      <point x="821" y="64"/>
      <point x="687" y="-30"/>
      <point x="536" y="-30" type="qcurve" smooth="yes"/>
      <point x="385" y="-30"/>
      <point x="163" y="242"/>
    </contour>
  </outline>
</glyph>
<glyph name="uni20AD" format="2">
  <advance width="854"/>
  <unicode hex="20AD"/>
  <outline>
    <contour>
      <point x="130" y="0" type="line"/>
      <point x="130" y="1456" type="line"/>
      <point x="317" y="1456" type="line"/>
      <point x="317" y="799" type="line"/>
      <point x="675" y="1456" type="line"/>
      <point x="867" y="1456" type="line"/>
      <point x="317" y="490" type="line"/>
      <point x="317" y="0" type="line"/>
    </contour>
    <contour>
      <point x="685" y="0" type="line"/>
      <point x="371" y="726" type="line"/>
      <point x="467" y="911" type="line"/>
      <point x="891" y="0" type="line"/>
    </contour>
    <contour>
      <point x="267" y="661" type="line"/>
      <point x="-9" y="661" type="line"/>
      <point x="-9" y="809" type="line"/>
      <point x="267" y="809" type="line"/>
    </contour>
    <contour>
      <point x="811" y="809" type="line"/>
      <point x="811" y="661" type="line"/>
      <point x="470" y="661" type="line"/>
      <point x="470" y="809" type="line"/>
    </contour>
  </outline>
</glyph>
<glyph name="uni20B2" format="2">
  <advance width="889"/>
  <unicode hex="20B2"/>
  <outline>
    <contour>
      <point x="394" y="-190" type="line"/>
      <point x="394" y="57" type="line"/>
      <point x="417" y="71" type="line"/>
      <point x="417" y="708" type="line"/>
      <point x="537" y="708" type="line"/>
      <point x="537" y="70" type="line"/>
      <point x="564" y="60" type="line"/>
      <point x="564" y="-190" type="line"/>
    </contour>
    <contour>
      <point x="417" y="708" type="line"/>
      <point x="417" y="1342" type="line"/>
      <point x="397" y="1352" type="line"/>
      <point x="397" y="1582" type="line"/>
      <point x="557" y="1582" type="line"/>
      <point x="557" y="1352" type="line"/>
      <point x="537" y="1339" type="line"/>
      <point x="537" y="708" type="line"/>
    </contour>
    <contour>
      <point x="860" y="725" type="line"/>
      <point x="860" y="452" type="line" smooth="yes"/>
      <point x="860" y="259"/>
      <point x="655" y="-5"/>
      <point x="499" y="-5" type="qcurve" smooth="yes"/>
      <point x="312" y="-5"/>
      <point x="94" y="288"/>
      <point x="94" y="542" type="qcurve" smooth="yes"/>
      <point x="94" y="897" type="line" smooth="yes"/>
      <point x="94" y="1196"/>
      <point x="312" y="1485"/>
      <point x="491" y="1485" type="qcurve" smooth="yes"/>
      <point x="660" y="1485"/>
      <point x="825" y="1347"/>
      <point x="854" y="1265" type="qcurve"/>
      <point x="702" y="1131" type="line"/>
      <point x="668" y="1201"/>
      <point x="561" y="1309"/>
      <point x="479" y="1309" type="qcurve" smooth="yes"/>
      <point x="385" y="1309"/>
      <point x="288" y="1112"/>
      <point x="288" y="899" type="qcurve" smooth="yes"/>
      <point x="288" y="544" type="line" smooth="yes"/>
      <point x="288" y="359"/>
      <point x="392" y="142"/>
      <point x="498" y="142" type="qcurve" smooth="yes"/>
      <point x="560" y="142"/>
      <point x="667" y="299"/>
      <point x="667" y="433" type="qcurve" smooth="yes"/>
      <point x="667" y="569" type="line"/>
      <point x="586" y="569" type="line"/>
      <point x="586" y="725" type="line"/>
    </contour>
  </outline>
</glyph>
<glyph name="liraTurkish" format="2">
  <advance width="863"/>
  <unicode hex="20BA"/>
  <outline>
    <contour>
      <point x="6" y="334" type="line"/>
      <point x="6" y="502" type="line"/>
      <point x="695" y="804" type="line"/>
      <point x="689" y="637" type="line"/>
    </contour>
    <contour>
      <point x="150" y="0" type="line"/>
      <point x="150" y="1456" type="line"/>
      <point x="332" y="1456" type="line"/>
      <point x="332" y="153" type="line"/>
      <point x="409" y="153" type="line" smooth="yes"/>
      <point x="568" y="153"/>
      <point x="674" y="304"/>
      <point x="674" y="491" type="qcurve" smooth="yes"/>
      <point x="674" y="558" type="line"/>
      <point x="854" y="558" type="line"/>
      <point x="854" y="493" type="line" smooth="yes"/>
      <point x="854" y="229"/>
      <point x="648" y="-4"/>
      <point x="372" y="-2" type="qcurve" smooth="yes"/>
    </contour>
    <contour>
      <point x="6" y="694" type="line"/>
      <point x="6" y="862" type="line"/>
      <point x="695" y="1166" type="line"/>
      <point x="689" y="999" type="line"/>
    </contour>
  </outline>
</glyph>
<glyph name="numero" format="2">
  <advance width="2081"/>
  <unicode hex="2116"/>
  <outline>
    <contour>
      <point x="170" y="0" type="line"/>
      <point x="170" y="1456" type="line"/>
      <point x="365" y="1456" type="line"/>
      <point x="867" y="416" type="line" smooth="yes"/>
      <point x="882" y="384"/>
      <point x="901" y="326"/>
      <point x="913" y="301" type="qcurve"/>
      <point x="923" y="301" type="line"/>
      <point x="919" y="331"/>
      <point x="917" y="406"/>
      <point x="917" y="436" type="qcurve" smooth="yes"/>
      <point x="917" y="1456" type="line"/>
      <point x="1094" y="1456" type="line"/>
      <point x="1094" y="0" type="line"/>
      <point x="897" y="0" type="line"/>
      <point x="387" y="1028" type="line" smooth="yes"/>
      <point x="371" y="1061"/>
      <point x="362" y="1118"/>
      <point x="355" y="1145" type="qcurve"/>
      <point x="345" y="1145" type="line"/>
      <point x="349" y="1115"/>
      <point x="350" y="1040"/>
      <point x="350" y="1010" type="qcurve" smooth="yes"/>
      <point x="350" y="0" type="line"/>
    </contour>
    <contour>
      <point x="1203" y="992" type="qcurve" smooth="yes"/>
      <point x="1203" y="1019" type="line" smooth="yes"/>
      <point x="1203" y="1219"/>
      <point x="1408" y="1473"/>
      <point x="1589" y="1473" type="qcurve" smooth="yes"/>
      <point x="1770" y="1473"/>
      <point x="1976" y="1219"/>
      <point x="1976" y="1019" type="qcurve" smooth="yes"/>
      <point x="1976" y="992" type="line" smooth="yes"/>
      <point x="1976" y="792"/>
      <point x="1781" y="539"/>
      <point x="1589" y="539" type="qcurve" smooth="yes"/>
      <point x="1397" y="539"/>
      <point x="1203" y="792"/>
    </contour>
    <contour>
      <point x="1401" y="1016" type="qcurve" smooth="yes"/>
      <point x="1401" y="991" type="line" smooth="yes"/>
      <point x="1401" y="864"/>
      <point x="1489" y="699"/>
      <point x="1589" y="699" type="qcurve" smooth="yes"/>
      <point x="1693" y="699"/>
      <point x="1778" y="864"/>
      <point x="1778" y="991" type="qcurve" smooth="yes"/>
      <point x="1778" y="1016" type="line" smooth="yes"/>
      <point x="1778" y="1143"/>
      <point x="1692" y="1308"/>
      <point x="1589" y="1308" type="qcurve" smooth="yes"/>
      <point x="1490" y="1308"/>
      <point x="1401" y="1143"/>
    </contour>
    <contour>
      <point x="1263" y="232" type="line"/>
      <point x="1263" y="414" type="line"/>
      <point x="1916" y="414" type="line"/>
      <point x="1916" y="232" type="line"/>
    </contour>
  </outline>
</glyph>
<glyph name="horizontalbarH" format="2">
  <advance width="1458"/>
  <outline>
    <contour>
      <point x="1292" y="1027" type="line"/>
      <point x="1070" y="1025" type="line"/>
      <point x="1070" y="1162" type="line"/>
      <point x="1302" y="1164" type="line"/>
    </contour>
    <contour>
      <point x="165" y="1025" type="line"/>
      <point x="156" y="1162" type="line"/>
      <point x="395" y="1162" type="line"/>
      <point x="395" y="1025" type="line"/>
    </contour>
    <contour>
      <point x="395" y="1035" type="line"/>
      <point x="395" y="1152" type="line"/>
      <point x="1070" y="1152" type="line"/>
      <point x="1070" y="1035" type="line"/>
    </contour>
  </outline>
</glyph>
<glyph name="nine.prop" format="2">
  <advance width="887"/>
  <outline>
    <contour>
      <point x="60" y="1002" type="qcurve" smooth="yes"/>
      <point x="60" y="1218"/>
      <point x="266" y="1486"/>
      <point x="423" y="1486" type="qcurve" smooth="yes"/>
      <point x="581" y="1486"/>
      <point x="807" y="1182"/>
      <point x="807" y="842" type="qcurve" smooth="yes"/>
      <point x="807" y="812" type="line" smooth="yes"/>
      <point x="807" y="432"/>
      <point x="498" y="-30"/>
      <point x="213" y="-30" type="qcurve" smooth="yes"/>
      <point x="198" y="-30" type="line"/>
      <point x="198" y="128" type="line"/>
      <point x="213" y="128" type="line" smooth="yes"/>
      <point x="401" y="128"/>
      <point x="619" y="452"/>
      <point x="619" y="802" type="qcurve" smooth="yes"/>
      <point x="619" y="852" type="line" smooth="yes"/>
      <point x="619" y="1112"/>
      <point x="508" y="1328"/>
      <point x="423" y="1328" type="qcurve" smooth="yes"/>
      <point x="341" y="1328"/>
      <point x="251" y="1157"/>
      <point x="251" y="1002" type="qcurve" smooth="yes"/>
      <point x="251" y="847"/>
      <point x="341" y="678"/>
      <point x="423" y="678" type="qcurve" smooth="yes"/>
      <point x="503" y="678"/>
      <point x="625" y="847"/>
      <point x="625" y="1002" type="qcurve"/>
      <point x="695" y="1002" type="line"/>
      <point x="695" y="786"/>
      <point x="530" y="520"/>
      <point x="393" y="520" type="qcurve" smooth="yes"/>
      <point x="244" y="520"/>
      <point x="60" y="786"/>
    </contour>
  </outline>
</glyph>
<glyph name="seven.prop" format="2">
  <advance width="678"/>
  <outline>
    <contour>
      <point x="80" y="0" type="line"/>
      <point x="474" y="1300" type="line"/>
      <point x="-3" y="1300" type="line"/>
      <point x="-3" y="1456" type="line"/>
      <point x="667" y="1456" type="line"/>
      <point x="667" y="1352" type="line"/>
      <point x="276" y="0" type="line"/>
    </contour>
  </outline>
</glyph>
<glyph name="shcha.bgr" format="2">
  <advance width="1388"/>
  <outline>
    <contour>
      <point x="1200" y="-270" type="line"/>
      <point x="1200" y="0" type="line"/>
      <point x="1045" y="0" type="line"/>
      <point x="1037" y="124" type="line"/>
      <point x="1033" y="124" type="line"/>
      <point x="995" y="58"/>
      <point x="888" y="-20"/>
      <point x="822" y="-20" type="qcurve" smooth="yes"/>
      <point x="750" y="-20"/>
      <point x="647" y="58"/>
      <point x="620" y="146" type="qcurve"/>
      <point x="614" y="146" type="line"/>
      <point x="568" y="58"/>
      <point x="455" y="-20"/>
      <point x="382" y="-20" type="qcurve" smooth="yes"/>
      <point x="267" y="-20"/>
      <point x="137" y="149"/>
      <point x="137" y="346" type="qcurve" smooth="yes"/>
      <point x="137" y="1052" type="line"/>
      <point x="323" y="1052" type="line"/>
      <point x="323" y="324" type="line" smooth="yes"/>
      <point x="323" y="223"/>
      <point x="384" y="136"/>
      <point x="440" y="136" type="qcurve" smooth="yes"/>
      <point x="488" y="136"/>
      <point x="561" y="213"/>
      <point x="582" y="274" type="qcurve"/>
      <point x="582" y="1052" type="line"/>
      <point x="768" y="1052" type="line"/>
      <point x="768" y="324" type="line" smooth="yes"/>
      <point x="768" y="223"/>
      <point x="829" y="136"/>
      <point x="885" y="136" type="qcurve" smooth="yes"/>
      <point x="933" y="136"/>
      <point x="1006" y="213"/>
      <point x="1027" y="274" type="qcurve"/>
      <point x="1027" y="1052" type="line"/>
      <point x="1213" y="1052" type="line"/>
      <point x="1213" y="145" type="line"/>
      <point x="1368" y="145" type="line"/>
      <point x="1368" y="-270" type="line"/>
    </contour>
  </outline>
</glyph>
<glyph name="three.prop" format="2">
  <advance width="811"/>
  <outline>
    <contour>
      <point x="17" y="350" type="qcurve" smooth="yes"/>
      <point x="17" y="390" type="line"/>
      <point x="203" y="390" type="line"/>
      <point x="203" y="350" type="line" smooth="yes"/>
      <point x="203" y="242"/>
      <point x="294" y="128"/>
      <point x="376" y="128" type="qcurve" smooth="yes"/>
      <point x="453" y="128"/>
      <point x="545" y="260"/>
      <point x="545" y="400" type="qcurve" smooth="yes"/>
      <point x="545" y="540"/>
      <point x="448" y="682"/>
      <point x="347" y="682" type="qcurve" smooth="yes"/>
      <point x="261" y="682" type="line"/>
      <point x="261" y="836" type="line"/>
      <point x="340" y="836" type="line" smooth="yes"/>
      <point x="430" y="836"/>
      <point x="508" y="970"/>
      <point x="508" y="1090" type="qcurve" smooth="yes"/>
      <point x="508" y="1210"/>
      <point x="436" y="1328"/>
      <point x="366" y="1328" type="qcurve" smooth="yes"/>
      <point x="303" y="1328"/>
      <point x="233" y="1240"/>
      <point x="233" y="1130" type="qcurve" smooth="yes"/>
      <point x="233" y="1090" type="line"/>
      <point x="47" y="1090" type="line"/>
      <point x="47" y="1130" type="line" smooth="yes"/>
      <point x="47" y="1290"/>
      <point x="233" y="1486"/>
      <point x="376" y="1486" type="qcurve" smooth="yes"/>
      <point x="518" y="1486"/>
      <point x="700" y="1270"/>
      <point x="700" y="1100" type="qcurve" smooth="yes"/>
      <point x="700" y="1000"/>
      <point x="622" y="816"/>
      <point x="530" y="766" type="qcurve"/>
      <point x="530" y="762" type="line"/>
      <point x="625" y="730"/>
      <point x="739" y="540"/>
      <point x="739" y="401" type="qcurve" smooth="yes"/>
      <point x="739" y="200"/>
      <point x="533" y="-30"/>
      <point x="379" y="-30" type="qcurve" smooth="yes"/>
      <point x="211" y="-30"/>
      <point x="17" y="176"/>
    </contour>
  </outline>
</glyph>
<glyph name="tse.bgr" format="2">
  <advance width="943"/>
  <outline>
    <contour>
      <point x="138" y="340" type="qcurve" smooth="yes"/>
      <point x="138" y="1052" type="line"/>
      <point x="324" y="1052" type="line"/>
      <point x="324" y="341" type="line" smooth="yes"/>
      <point x="324" y="231"/>
      <point x="384" y="136"/>
      <point x="440" y="136" type="qcurve" smooth="yes"/>
      <point x="488" y="136"/>
      <point x="561" y="220"/>
      <point x="582" y="286" type="qcurve"/>
      <point x="582" y="1052" type="line"/>
      <point x="768" y="1052" type="line"/>
      <point x="768" y="145" type="line"/>
      <point x="923" y="145" type="line"/>
      <point x="923" y="-270" type="line"/>
      <point x="755" y="-270" type="line"/>
      <point x="755" y="0" type="line"/>
      <point x="595" y="0" type="line"/>
      <point x="590" y="105" type="line"/>
      <point x="584" y="105" type="line"/>
      <point x="546" y="47"/>
      <point x="436" y="-20"/>
      <point x="370" y="-20" type="qcurve" smooth="yes"/>
      <point x="264" y="-20"/>
      <point x="138" y="146"/>
    </contour>
  </outline>
</glyph>
<glyph name="ve.bgr" format="2">
  <advance width="916"/>
  <outline>
    <contour>
      <point x="125" y="400.0" type="qcurve" smooth="yes"/>
      <point x="125" y="1150.0" type="line" smooth="yes"/>
      <point x="125" y="1338.0"/>
      <point x="310" y="1556.0"/>
      <point x="467" y="1556.0" type="qcurve" smooth="yes"/>
      <point x="621" y="1556.0"/>
      <point x="798" y="1344.0"/>
      <point x="798" y="1160.0" type="qcurve" smooth="yes"/>
      <point x="798" y="1054.0"/>
      <point x="692" y="854.0"/>
      <point x="600" y="806.0" type="qcurve"/>
      <point x="600" y="802.0" type="line"/>
      <point x="697" y="776.0"/>
      <point x="841" y="588.0"/>
      <point x="841" y="421.0" type="qcurve" smooth="yes"/>
      <point x="841" y="201.0"/>
      <point x="647" y="-30.0"/>
      <point x="483" y="-30.0" type="qcurve" smooth="yes"/>
      <point x="308" y="-30.0"/>
      <point x="125" y="201.0"/>
    </contour>
    <contour>
      <point x="469" y="1403.0" type="qcurve" smooth="yes"/>
      <point x="393" y="1403"/>
      <point x="311" y="1273.0"/>
      <point x="311" y="1150.0" type="qcurve" smooth="yes"/>
      <point x="311" y="870.0" type="line"/>
      <point x="450" y="870.0" type="line" smooth="yes"/>
      <point x="528" y="870.0"/>
      <point x="618" y="1021"/>
      <point x="618" y="1150.0" type="qcurve" smooth="yes"/>
      <point x="618" y="1298.0"/>
      <point x="537" y="1403.0"/>
    </contour>
    <contour>
      <point x="311.0" y="400" type="line" smooth="yes"/>
      <point x="311.0" y="257"/>
      <point x="398.0" y="122"/>
      <point x="484.0" y="122" type="qcurve" smooth="yes"/>
      <point x="569.0" y="122"/>
      <point x="657.0" y="257"/>
      <point x="657.0" y="420" type="qcurve" smooth="yes"/>
      <point x="657.0" y="572"/>
      <point x="533" y="728.0"/>
      <point x="437" y="728" type="qcurve" smooth="yes"/>
      <point x="311.0" y="728" type="line"/>
    </contour>
  </outline>
</glyph>
<glyph name="won.rvrn" format="2">
  <advance width="1476"/>
  <outline>
    <contour>
      <point x="393" y="-10" type="line"/>
      <point x="115" y="1456" type="line"/>
      <point x="289" y="1456" type="line"/>
      <point x="468" y="358" type="line"/>
      <point x="476" y="270" type="line"/>
      <point x="482" y="270" type="line"/>
      <point x="490" y="358" type="line"/>
      <point x="638" y="1456" type="line"/>
      <point x="836" y="1456" type="line"/>
      <point x="1014" y="358" type="line"/>
      <point x="1022" y="270" type="line"/>
      <point x="1028" y="270" type="line"/>
      <point x="1036" y="358" type="line"/>
      <point x="1185" y="1456" type="line"/>
      <point x="1347" y="1456" type="line"/>
      <point x="1109" y="-10" type="line"/>
      <point x="931" y="-10" type="line"/>
      <point x="765" y="1100" type="line"/>
      <point x="744" y="1258" type="line"/>
      <point x="738" y="1258" type="line"/>
      <point x="717" y="1100" type="line" smooth="yes"/>
      <point x="571" y="-10" type="line"/>
    </contour>
    <contour>
      <point x="1164" y="1007" type="line"/>
      <point x="1182" y="1007" type="line"/>
      <point x="1182" y="1017" type="line"/>
      <point x="1428" y="1019" type="line"/>
      <point x="1428" y="882" type="line"/>
      <point x="1182" y="880" type="line"/>
      <point x="1182" y="885" type="line"/>
      <point x="1164" y="885" type="line"/>
    </contour>
    <contour>
      <point x="48" y="880" type="line"/>
      <point x="48" y="1017" type="line"/>
      <point x="286" y="1017" type="line"/>
      <point x="286" y="1007" type="line"/>
      <point x="309" y="1007" type="line"/>
      <point x="309" y="885" type="line"/>
      <point x="286" y="885" type="line"/>
      <point x="286" y="880" type="line"/>
    </contour>
    <contour>
      <point x="1108" y="652" type="line"/>
      <point x="1123" y="652" type="line"/>
      <point x="1123" y="657" type="line"/>
      <point x="1389" y="659" type="line"/>
      <point x="1389" y="522" type="line"/>
      <point x="1123" y="520" type="line"/>
      <point x="1123" y="530" type="line"/>
      <point x="1108" y="530" type="line"/>
    </contour>
    <contour>
      <point x="79" y="520" type="line"/>
      <point x="79" y="657" type="line"/>
      <point x="357" y="657" type="line"/>
      <point x="357" y="652" type="line"/>
      <point x="381" y="652" type="line"/>
      <point x="381" y="530" type="line"/>
      <point x="357" y="530" type="line"/>
      <point x="357" y="520" type="line"/>
    </contour>
  </outline>
</glyph>
<glyph name="zhe.bgr" format="2">
  <advance width="1130"/>
  <outline>
    <contour>
      <point x="938" y="0" type="line"/>
      <point x="688" y="524" type="line"/>
      <point x="804" y="702" type="line"/>
      <point x="1146" y="0" type="line"/>
    </contour>
    <contour>
      <point x="188" y="0" type="line"/>
      <point x="-16" y="0" type="line"/>
      <point x="316" y="712" type="line"/>
      <point x="418" y="524" type="line"/>
    </contour>
    <contour>
      <point x="470" y="0" type="line"/>
      <point x="470" y="351" type="line"/>
      <point x="29" y="1052" type="line"/>
      <point x="220" y="1052" type="line"/>
      <point x="470" y="619" type="line"/>
      <point x="470" y="1536" type="line"/>
      <point x="656" y="1536" type="line"/>
      <point x="656" y="619" type="line"/>
      <point x="906" y="1052" type="line"/>
      <point x="1097" y="1052" type="line"/>
      <point x="656" y="361" type="line"/>
      <point x="656" y="0" type="line"/>
    </contour>
  </outline>
</glyph>
